<mxfile host="Electron" agent="Mozilla/5.0 (Windows NT 10.0; Win64; x64) AppleWebKit/537.36 (KHTML, like Gecko) draw.io/26.0.4 Chrome/128.0.6613.186 Electron/32.2.5 Safari/537.36" version="26.0.4">
  <diagram name="Page-1" id="32zEfymFL0ovkVdN9nRZ">
    <mxGraphModel dx="3191" dy="3061" grid="1" gridSize="10" guides="1" tooltips="1" connect="1" arrows="1" fold="1" page="1" pageScale="1" pageWidth="850" pageHeight="1100" math="0" shadow="0">
      <root>
        <mxCell id="0" />
        <mxCell id="1" parent="0" />
        <mxCell id="JDIGhHd4CEicn7E4zc0f-1" value="&lt;i&gt;&amp;lt;&amp;lt;interface&amp;gt;&amp;gt;&lt;br&gt;IState&lt;/i&gt;" style="swimlane;fontStyle=1;align=center;verticalAlign=top;childLayout=stackLayout;horizontal=1;startSize=40;horizontalStack=0;resizeParent=1;resizeParentMax=0;resizeLast=0;collapsible=1;marginBottom=0;whiteSpace=wrap;html=1;" parent="1" vertex="1">
          <mxGeometry x="830" y="400" width="160" height="170" as="geometry" />
        </mxCell>
        <mxCell id="JDIGhHd4CEicn7E4zc0f-2" value="+InsertQuarter()" style="text;strokeColor=none;fillColor=none;align=left;verticalAlign=top;spacingLeft=4;spacingRight=4;overflow=hidden;rotatable=0;points=[[0,0.5],[1,0.5]];portConstraint=eastwest;whiteSpace=wrap;html=1;fontStyle=2" parent="JDIGhHd4CEicn7E4zc0f-1" vertex="1">
          <mxGeometry y="40" width="160" height="26" as="geometry" />
        </mxCell>
        <mxCell id="JDIGhHd4CEicn7E4zc0f-5" value="+EjectQuarter()" style="text;strokeColor=none;fillColor=none;align=left;verticalAlign=top;spacingLeft=4;spacingRight=4;overflow=hidden;rotatable=0;points=[[0,0.5],[1,0.5]];portConstraint=eastwest;whiteSpace=wrap;html=1;fontStyle=2" parent="JDIGhHd4CEicn7E4zc0f-1" vertex="1">
          <mxGeometry y="66" width="160" height="26" as="geometry" />
        </mxCell>
        <mxCell id="JDIGhHd4CEicn7E4zc0f-6" value="+TurnCrank()" style="text;strokeColor=none;fillColor=none;align=left;verticalAlign=top;spacingLeft=4;spacingRight=4;overflow=hidden;rotatable=0;points=[[0,0.5],[1,0.5]];portConstraint=eastwest;whiteSpace=wrap;html=1;fontStyle=2" parent="JDIGhHd4CEicn7E4zc0f-1" vertex="1">
          <mxGeometry y="92" width="160" height="26" as="geometry" />
        </mxCell>
        <mxCell id="JDIGhHd4CEicn7E4zc0f-7" value="+Dispense()" style="text;strokeColor=none;fillColor=none;align=left;verticalAlign=top;spacingLeft=4;spacingRight=4;overflow=hidden;rotatable=0;points=[[0,0.5],[1,0.5]];portConstraint=eastwest;whiteSpace=wrap;html=1;fontStyle=2" parent="JDIGhHd4CEicn7E4zc0f-1" vertex="1">
          <mxGeometry y="118" width="160" height="26" as="geometry" />
        </mxCell>
        <mxCell id="JDIGhHd4CEicn7E4zc0f-8" value="+ToString()" style="text;strokeColor=none;fillColor=none;align=left;verticalAlign=top;spacingLeft=4;spacingRight=4;overflow=hidden;rotatable=0;points=[[0,0.5],[1,0.5]];portConstraint=eastwest;whiteSpace=wrap;html=1;fontStyle=2" parent="JDIGhHd4CEicn7E4zc0f-1" vertex="1">
          <mxGeometry y="144" width="160" height="26" as="geometry" />
        </mxCell>
        <mxCell id="JDIGhHd4CEicn7E4zc0f-9" value="Context" style="swimlane;fontStyle=1;align=center;verticalAlign=top;childLayout=stackLayout;horizontal=1;startSize=26;horizontalStack=0;resizeParent=1;resizeParentMax=0;resizeLast=0;collapsible=1;marginBottom=0;whiteSpace=wrap;html=1;" parent="1" vertex="1">
          <mxGeometry x="300" y="400" width="140" height="86" as="geometry" />
        </mxCell>
        <mxCell id="JDIGhHd4CEicn7E4zc0f-10" value="+action()" style="text;strokeColor=none;fillColor=none;align=left;verticalAlign=top;spacingLeft=4;spacingRight=4;overflow=hidden;rotatable=0;points=[[0,0.5],[1,0.5]];portConstraint=eastwest;whiteSpace=wrap;html=1;" parent="JDIGhHd4CEicn7E4zc0f-9" vertex="1">
          <mxGeometry y="26" width="140" height="26" as="geometry" />
        </mxCell>
        <mxCell id="JDIGhHd4CEicn7E4zc0f-37" value="" style="line;strokeWidth=1;fillColor=none;align=left;verticalAlign=middle;spacingTop=-1;spacingLeft=3;spacingRight=3;rotatable=0;labelPosition=right;points=[];portConstraint=eastwest;strokeColor=inherit;" parent="JDIGhHd4CEicn7E4zc0f-9" vertex="1">
          <mxGeometry y="52" width="140" height="8" as="geometry" />
        </mxCell>
        <mxCell id="JDIGhHd4CEicn7E4zc0f-36" value="-m_strategy:Strategy" style="text;strokeColor=none;fillColor=none;align=left;verticalAlign=top;spacingLeft=4;spacingRight=4;overflow=hidden;rotatable=0;points=[[0,0.5],[1,0.5]];portConstraint=eastwest;whiteSpace=wrap;html=1;" parent="JDIGhHd4CEicn7E4zc0f-9" vertex="1">
          <mxGeometry y="60" width="140" height="26" as="geometry" />
        </mxCell>
        <mxCell id="JDIGhHd4CEicn7E4zc0f-13" value="&lt;i&gt;&amp;lt;&amp;lt;interface&amp;gt;&amp;gt;&lt;br&gt;Strategy&lt;/i&gt;" style="swimlane;fontStyle=1;align=center;verticalAlign=top;childLayout=stackLayout;horizontal=1;startSize=40;horizontalStack=0;resizeParent=1;resizeParentMax=0;resizeLast=0;collapsible=1;marginBottom=0;whiteSpace=wrap;html=1;" parent="1" vertex="1">
          <mxGeometry x="520" y="400" width="120" height="66" as="geometry" />
        </mxCell>
        <mxCell id="JDIGhHd4CEicn7E4zc0f-14" value="+action()" style="text;strokeColor=none;fillColor=none;align=left;verticalAlign=top;spacingLeft=4;spacingRight=4;overflow=hidden;rotatable=0;points=[[0,0.5],[1,0.5]];portConstraint=eastwest;whiteSpace=wrap;html=1;fontStyle=2" parent="JDIGhHd4CEicn7E4zc0f-13" vertex="1">
          <mxGeometry y="40" width="120" height="26" as="geometry" />
        </mxCell>
        <mxCell id="JDIGhHd4CEicn7E4zc0f-16" value="" style="endArrow=diamondThin;endFill=0;endSize=24;html=1;rounded=0;" parent="1" source="JDIGhHd4CEicn7E4zc0f-13" target="JDIGhHd4CEicn7E4zc0f-9" edge="1">
          <mxGeometry width="160" relative="1" as="geometry">
            <mxPoint x="260" y="530" as="sourcePoint" />
            <mxPoint x="420" y="530" as="targetPoint" />
          </mxGeometry>
        </mxCell>
        <mxCell id="JDIGhHd4CEicn7E4zc0f-17" value="StrategyA" style="swimlane;fontStyle=1;align=center;verticalAlign=top;childLayout=stackLayout;horizontal=1;startSize=26;horizontalStack=0;resizeParent=1;resizeParentMax=0;resizeLast=0;collapsible=1;marginBottom=0;whiteSpace=wrap;html=1;" parent="1" vertex="1">
          <mxGeometry x="440" y="540" width="100" height="52" as="geometry" />
        </mxCell>
        <mxCell id="JDIGhHd4CEicn7E4zc0f-18" value="+action()" style="text;strokeColor=none;fillColor=none;align=left;verticalAlign=top;spacingLeft=4;spacingRight=4;overflow=hidden;rotatable=0;points=[[0,0.5],[1,0.5]];portConstraint=eastwest;whiteSpace=wrap;html=1;" parent="JDIGhHd4CEicn7E4zc0f-17" vertex="1">
          <mxGeometry y="26" width="100" height="26" as="geometry" />
        </mxCell>
        <mxCell id="JDIGhHd4CEicn7E4zc0f-19" value="StrategyB" style="swimlane;fontStyle=1;align=center;verticalAlign=top;childLayout=stackLayout;horizontal=1;startSize=26;horizontalStack=0;resizeParent=1;resizeParentMax=0;resizeLast=0;collapsible=1;marginBottom=0;whiteSpace=wrap;html=1;" parent="1" vertex="1">
          <mxGeometry x="620" y="540" width="100" height="52" as="geometry" />
        </mxCell>
        <mxCell id="JDIGhHd4CEicn7E4zc0f-20" value="+action()" style="text;strokeColor=none;fillColor=none;align=left;verticalAlign=top;spacingLeft=4;spacingRight=4;overflow=hidden;rotatable=0;points=[[0,0.5],[1,0.5]];portConstraint=eastwest;whiteSpace=wrap;html=1;" parent="JDIGhHd4CEicn7E4zc0f-19" vertex="1">
          <mxGeometry y="26" width="100" height="26" as="geometry" />
        </mxCell>
        <mxCell id="JDIGhHd4CEicn7E4zc0f-21" value="" style="endArrow=block;dashed=1;endFill=0;endSize=12;html=1;rounded=0;" parent="1" source="JDIGhHd4CEicn7E4zc0f-17" target="JDIGhHd4CEicn7E4zc0f-13" edge="1">
          <mxGeometry width="160" relative="1" as="geometry">
            <mxPoint x="440" y="510" as="sourcePoint" />
            <mxPoint x="600" y="510" as="targetPoint" />
          </mxGeometry>
        </mxCell>
        <mxCell id="JDIGhHd4CEicn7E4zc0f-22" value="" style="endArrow=block;dashed=1;endFill=0;endSize=12;html=1;rounded=0;" parent="1" source="JDIGhHd4CEicn7E4zc0f-19" target="JDIGhHd4CEicn7E4zc0f-13" edge="1">
          <mxGeometry width="160" relative="1" as="geometry">
            <mxPoint x="440" y="510" as="sourcePoint" />
            <mxPoint x="600" y="510" as="targetPoint" />
          </mxGeometry>
        </mxCell>
        <mxCell id="JDIGhHd4CEicn7E4zc0f-23" value="Context" style="swimlane;fontStyle=1;align=center;verticalAlign=top;childLayout=stackLayout;horizontal=1;startSize=26;horizontalStack=0;resizeParent=1;resizeParentMax=0;resizeLast=0;collapsible=1;marginBottom=0;whiteSpace=wrap;html=1;" parent="1" vertex="1">
          <mxGeometry x="280" y="640" width="140" height="86" as="geometry" />
        </mxCell>
        <mxCell id="JDIGhHd4CEicn7E4zc0f-24" value="+action()" style="text;strokeColor=none;fillColor=none;align=left;verticalAlign=top;spacingLeft=4;spacingRight=4;overflow=hidden;rotatable=0;points=[[0,0.5],[1,0.5]];portConstraint=eastwest;whiteSpace=wrap;html=1;" parent="JDIGhHd4CEicn7E4zc0f-23" vertex="1">
          <mxGeometry y="26" width="140" height="26" as="geometry" />
        </mxCell>
        <mxCell id="JDIGhHd4CEicn7E4zc0f-41" value="" style="line;strokeWidth=1;fillColor=none;align=left;verticalAlign=middle;spacingTop=-1;spacingLeft=3;spacingRight=3;rotatable=0;labelPosition=right;points=[];portConstraint=eastwest;strokeColor=inherit;" parent="JDIGhHd4CEicn7E4zc0f-23" vertex="1">
          <mxGeometry y="52" width="140" height="8" as="geometry" />
        </mxCell>
        <mxCell id="JDIGhHd4CEicn7E4zc0f-40" value="-m_state:State" style="text;strokeColor=none;fillColor=none;align=left;verticalAlign=top;spacingLeft=4;spacingRight=4;overflow=hidden;rotatable=0;points=[[0,0.5],[1,0.5]];portConstraint=eastwest;whiteSpace=wrap;html=1;" parent="JDIGhHd4CEicn7E4zc0f-23" vertex="1">
          <mxGeometry y="60" width="140" height="26" as="geometry" />
        </mxCell>
        <mxCell id="JDIGhHd4CEicn7E4zc0f-25" value="&lt;i&gt;&amp;lt;&amp;lt;interface&amp;gt;&amp;gt;&lt;br&gt;State&lt;/i&gt;" style="swimlane;fontStyle=1;align=center;verticalAlign=top;childLayout=stackLayout;horizontal=1;startSize=40;horizontalStack=0;resizeParent=1;resizeParentMax=0;resizeLast=0;collapsible=1;marginBottom=0;whiteSpace=wrap;html=1;" parent="1" vertex="1">
          <mxGeometry x="500" y="640" width="120" height="66" as="geometry" />
        </mxCell>
        <mxCell id="JDIGhHd4CEicn7E4zc0f-26" value="+action()" style="text;strokeColor=none;fillColor=none;align=left;verticalAlign=top;spacingLeft=4;spacingRight=4;overflow=hidden;rotatable=0;points=[[0,0.5],[1,0.5]];portConstraint=eastwest;whiteSpace=wrap;html=1;fontStyle=2" parent="JDIGhHd4CEicn7E4zc0f-25" vertex="1">
          <mxGeometry y="40" width="120" height="26" as="geometry" />
        </mxCell>
        <mxCell id="JDIGhHd4CEicn7E4zc0f-27" value="" style="endArrow=diamondThin;endFill=0;endSize=24;html=1;rounded=0;" parent="1" source="JDIGhHd4CEicn7E4zc0f-25" target="JDIGhHd4CEicn7E4zc0f-23" edge="1">
          <mxGeometry width="160" relative="1" as="geometry">
            <mxPoint x="240" y="770" as="sourcePoint" />
            <mxPoint x="400" y="770" as="targetPoint" />
          </mxGeometry>
        </mxCell>
        <mxCell id="JDIGhHd4CEicn7E4zc0f-28" value="StateA" style="swimlane;fontStyle=1;align=center;verticalAlign=top;childLayout=stackLayout;horizontal=1;startSize=26;horizontalStack=0;resizeParent=1;resizeParentMax=0;resizeLast=0;collapsible=1;marginBottom=0;whiteSpace=wrap;html=1;" parent="1" vertex="1">
          <mxGeometry x="440" y="780" width="100" height="52" as="geometry" />
        </mxCell>
        <mxCell id="JDIGhHd4CEicn7E4zc0f-29" value="+action()" style="text;strokeColor=none;fillColor=none;align=left;verticalAlign=top;spacingLeft=4;spacingRight=4;overflow=hidden;rotatable=0;points=[[0,0.5],[1,0.5]];portConstraint=eastwest;whiteSpace=wrap;html=1;" parent="JDIGhHd4CEicn7E4zc0f-28" vertex="1">
          <mxGeometry y="26" width="100" height="26" as="geometry" />
        </mxCell>
        <mxCell id="JDIGhHd4CEicn7E4zc0f-30" value="StateB" style="swimlane;fontStyle=1;align=center;verticalAlign=top;childLayout=stackLayout;horizontal=1;startSize=26;horizontalStack=0;resizeParent=1;resizeParentMax=0;resizeLast=0;collapsible=1;marginBottom=0;whiteSpace=wrap;html=1;" parent="1" vertex="1">
          <mxGeometry x="580" y="780" width="100" height="52" as="geometry" />
        </mxCell>
        <mxCell id="JDIGhHd4CEicn7E4zc0f-31" value="+action()" style="text;strokeColor=none;fillColor=none;align=left;verticalAlign=top;spacingLeft=4;spacingRight=4;overflow=hidden;rotatable=0;points=[[0,0.5],[1,0.5]];portConstraint=eastwest;whiteSpace=wrap;html=1;" parent="JDIGhHd4CEicn7E4zc0f-30" vertex="1">
          <mxGeometry y="26" width="100" height="26" as="geometry" />
        </mxCell>
        <mxCell id="JDIGhHd4CEicn7E4zc0f-32" value="" style="endArrow=block;dashed=1;endFill=0;endSize=12;html=1;rounded=0;" parent="1" source="JDIGhHd4CEicn7E4zc0f-28" target="JDIGhHd4CEicn7E4zc0f-25" edge="1">
          <mxGeometry width="160" relative="1" as="geometry">
            <mxPoint x="420" y="750" as="sourcePoint" />
            <mxPoint x="580" y="750" as="targetPoint" />
          </mxGeometry>
        </mxCell>
        <mxCell id="JDIGhHd4CEicn7E4zc0f-33" value="" style="endArrow=block;dashed=1;endFill=0;endSize=12;html=1;rounded=0;" parent="1" source="JDIGhHd4CEicn7E4zc0f-30" target="JDIGhHd4CEicn7E4zc0f-25" edge="1">
          <mxGeometry width="160" relative="1" as="geometry">
            <mxPoint x="420" y="750" as="sourcePoint" />
            <mxPoint x="580" y="750" as="targetPoint" />
          </mxGeometry>
        </mxCell>
        <mxCell id="JDIGhHd4CEicn7E4zc0f-34" value="&lt;pre&gt;&lt;font face=&quot;Lucida Console&quot;&gt;m_strategy.action()&lt;/font&gt;&lt;/pre&gt;" style="shape=note;whiteSpace=wrap;html=1;backgroundOutline=1;darkOpacity=0.05;align=left;size=13;" parent="1" vertex="1">
          <mxGeometry x="295" y="500" width="175" height="30" as="geometry" />
        </mxCell>
        <mxCell id="JDIGhHd4CEicn7E4zc0f-35" style="edgeStyle=orthogonalEdgeStyle;rounded=0;orthogonalLoop=1;jettySize=auto;html=1;" parent="1" source="JDIGhHd4CEicn7E4zc0f-10" target="JDIGhHd4CEicn7E4zc0f-34" edge="1">
          <mxGeometry relative="1" as="geometry">
            <Array as="points">
              <mxPoint x="250" y="439" />
              <mxPoint x="250" y="515" />
            </Array>
          </mxGeometry>
        </mxCell>
        <mxCell id="JDIGhHd4CEicn7E4zc0f-38" value="&lt;pre&gt;&lt;font face=&quot;Lucida Console&quot;&gt;m_state.action()&lt;/font&gt;&lt;/pre&gt;" style="shape=note;whiteSpace=wrap;html=1;backgroundOutline=1;darkOpacity=0.05;align=left;size=13;" parent="1" vertex="1">
          <mxGeometry x="265" y="740" width="175" height="30" as="geometry" />
        </mxCell>
        <mxCell id="JDIGhHd4CEicn7E4zc0f-39" style="edgeStyle=orthogonalEdgeStyle;rounded=0;orthogonalLoop=1;jettySize=auto;html=1;" parent="1" source="JDIGhHd4CEicn7E4zc0f-24" target="JDIGhHd4CEicn7E4zc0f-38" edge="1">
          <mxGeometry relative="1" as="geometry">
            <Array as="points">
              <mxPoint x="250" y="679" />
              <mxPoint x="250" y="750" />
            </Array>
          </mxGeometry>
        </mxCell>
        <mxCell id="JDIGhHd4CEicn7E4zc0f-42" value="Context" style="swimlane;fontStyle=1;align=center;verticalAlign=top;childLayout=stackLayout;horizontal=1;startSize=26;horizontalStack=0;resizeParent=1;resizeParentMax=0;resizeLast=0;collapsible=1;marginBottom=0;whiteSpace=wrap;html=1;" parent="1" vertex="1">
          <mxGeometry x="280" y="920" width="140" height="138" as="geometry" />
        </mxCell>
        <mxCell id="JDIGhHd4CEicn7E4zc0f-43" value="+action()" style="text;strokeColor=none;fillColor=none;align=left;verticalAlign=top;spacingLeft=4;spacingRight=4;overflow=hidden;rotatable=0;points=[[0,0.5],[1,0.5]];portConstraint=eastwest;whiteSpace=wrap;html=1;" parent="JDIGhHd4CEicn7E4zc0f-42" vertex="1">
          <mxGeometry y="26" width="140" height="26" as="geometry" />
        </mxCell>
        <mxCell id="JDIGhHd4CEicn7E4zc0f-44" value="" style="line;strokeWidth=1;fillColor=none;align=left;verticalAlign=middle;spacingTop=-1;spacingLeft=3;spacingRight=3;rotatable=0;labelPosition=right;points=[];portConstraint=eastwest;strokeColor=inherit;" parent="JDIGhHd4CEicn7E4zc0f-42" vertex="1">
          <mxGeometry y="52" width="140" height="8" as="geometry" />
        </mxCell>
        <mxCell id="JDIGhHd4CEicn7E4zc0f-45" value="-m_state:State" style="text;strokeColor=none;fillColor=none;align=left;verticalAlign=top;spacingLeft=4;spacingRight=4;overflow=hidden;rotatable=0;points=[[0,0.5],[1,0.5]];portConstraint=eastwest;whiteSpace=wrap;html=1;" parent="JDIGhHd4CEicn7E4zc0f-42" vertex="1">
          <mxGeometry y="60" width="140" height="26" as="geometry" />
        </mxCell>
        <mxCell id="JDIGhHd4CEicn7E4zc0f-57" value="-m_stateA:StateA" style="text;strokeColor=none;fillColor=none;align=left;verticalAlign=top;spacingLeft=4;spacingRight=4;overflow=hidden;rotatable=0;points=[[0,0.5],[1,0.5]];portConstraint=eastwest;whiteSpace=wrap;html=1;fontStyle=4" parent="JDIGhHd4CEicn7E4zc0f-42" vertex="1">
          <mxGeometry y="86" width="140" height="26" as="geometry" />
        </mxCell>
        <mxCell id="JDIGhHd4CEicn7E4zc0f-58" value="&lt;u&gt;-m_stateB:StateB&lt;/u&gt;" style="text;strokeColor=none;fillColor=none;align=left;verticalAlign=top;spacingLeft=4;spacingRight=4;overflow=hidden;rotatable=0;points=[[0,0.5],[1,0.5]];portConstraint=eastwest;whiteSpace=wrap;html=1;" parent="JDIGhHd4CEicn7E4zc0f-42" vertex="1">
          <mxGeometry y="112" width="140" height="26" as="geometry" />
        </mxCell>
        <mxCell id="JDIGhHd4CEicn7E4zc0f-46" value="&lt;i&gt;&amp;lt;&amp;lt;interface&amp;gt;&amp;gt;&lt;br&gt;State&lt;/i&gt;" style="swimlane;fontStyle=1;align=center;verticalAlign=top;childLayout=stackLayout;horizontal=1;startSize=40;horizontalStack=0;resizeParent=1;resizeParentMax=0;resizeLast=0;collapsible=1;marginBottom=0;whiteSpace=wrap;html=1;" parent="1" vertex="1">
          <mxGeometry x="500" y="920" width="120" height="66" as="geometry" />
        </mxCell>
        <mxCell id="JDIGhHd4CEicn7E4zc0f-47" value="+action()" style="text;strokeColor=none;fillColor=none;align=left;verticalAlign=top;spacingLeft=4;spacingRight=4;overflow=hidden;rotatable=0;points=[[0,0.5],[1,0.5]];portConstraint=eastwest;whiteSpace=wrap;html=1;fontStyle=2" parent="JDIGhHd4CEicn7E4zc0f-46" vertex="1">
          <mxGeometry y="40" width="120" height="26" as="geometry" />
        </mxCell>
        <mxCell id="JDIGhHd4CEicn7E4zc0f-48" value="" style="endArrow=diamondThin;endFill=0;endSize=24;html=1;rounded=0;" parent="1" source="JDIGhHd4CEicn7E4zc0f-46" target="JDIGhHd4CEicn7E4zc0f-42" edge="1">
          <mxGeometry width="160" relative="1" as="geometry">
            <mxPoint x="240" y="1050" as="sourcePoint" />
            <mxPoint x="400" y="1050" as="targetPoint" />
          </mxGeometry>
        </mxCell>
        <mxCell id="JDIGhHd4CEicn7E4zc0f-49" value="StateA" style="swimlane;fontStyle=1;align=center;verticalAlign=top;childLayout=stackLayout;horizontal=1;startSize=26;horizontalStack=0;resizeParent=1;resizeParentMax=0;resizeLast=0;collapsible=1;marginBottom=0;whiteSpace=wrap;html=1;" parent="1" vertex="1">
          <mxGeometry x="440" y="1060" width="100" height="52" as="geometry" />
        </mxCell>
        <mxCell id="JDIGhHd4CEicn7E4zc0f-50" value="+action()" style="text;strokeColor=none;fillColor=none;align=left;verticalAlign=top;spacingLeft=4;spacingRight=4;overflow=hidden;rotatable=0;points=[[0,0.5],[1,0.5]];portConstraint=eastwest;whiteSpace=wrap;html=1;" parent="JDIGhHd4CEicn7E4zc0f-49" vertex="1">
          <mxGeometry y="26" width="100" height="26" as="geometry" />
        </mxCell>
        <mxCell id="JDIGhHd4CEicn7E4zc0f-51" value="StateB" style="swimlane;fontStyle=1;align=center;verticalAlign=top;childLayout=stackLayout;horizontal=1;startSize=26;horizontalStack=0;resizeParent=1;resizeParentMax=0;resizeLast=0;collapsible=1;marginBottom=0;whiteSpace=wrap;html=1;" parent="1" vertex="1">
          <mxGeometry x="580" y="1060" width="100" height="52" as="geometry" />
        </mxCell>
        <mxCell id="JDIGhHd4CEicn7E4zc0f-52" value="+action()" style="text;strokeColor=none;fillColor=none;align=left;verticalAlign=top;spacingLeft=4;spacingRight=4;overflow=hidden;rotatable=0;points=[[0,0.5],[1,0.5]];portConstraint=eastwest;whiteSpace=wrap;html=1;" parent="JDIGhHd4CEicn7E4zc0f-51" vertex="1">
          <mxGeometry y="26" width="100" height="26" as="geometry" />
        </mxCell>
        <mxCell id="JDIGhHd4CEicn7E4zc0f-53" value="" style="endArrow=block;dashed=1;endFill=0;endSize=12;html=1;rounded=0;" parent="1" source="JDIGhHd4CEicn7E4zc0f-49" target="JDIGhHd4CEicn7E4zc0f-46" edge="1">
          <mxGeometry width="160" relative="1" as="geometry">
            <mxPoint x="420" y="1030" as="sourcePoint" />
            <mxPoint x="580" y="1030" as="targetPoint" />
          </mxGeometry>
        </mxCell>
        <mxCell id="JDIGhHd4CEicn7E4zc0f-54" value="" style="endArrow=block;dashed=1;endFill=0;endSize=12;html=1;rounded=0;" parent="1" source="JDIGhHd4CEicn7E4zc0f-51" target="JDIGhHd4CEicn7E4zc0f-46" edge="1">
          <mxGeometry width="160" relative="1" as="geometry">
            <mxPoint x="420" y="1030" as="sourcePoint" />
            <mxPoint x="580" y="1030" as="targetPoint" />
          </mxGeometry>
        </mxCell>
        <mxCell id="JDIGhHd4CEicn7E4zc0f-59" value="Contains statically" style="endArrow=diamondThin;endFill=1;endSize=24;html=1;rounded=0;edgeStyle=orthogonalEdgeStyle;" parent="1" source="JDIGhHd4CEicn7E4zc0f-49" target="JDIGhHd4CEicn7E4zc0f-42" edge="1">
          <mxGeometry x="-0.2349" width="160" relative="1" as="geometry">
            <mxPoint x="220" y="1170" as="sourcePoint" />
            <mxPoint x="380" y="1170" as="targetPoint" />
            <Array as="points">
              <mxPoint x="490" y="1130" />
              <mxPoint x="350" y="1130" />
            </Array>
            <mxPoint as="offset" />
          </mxGeometry>
        </mxCell>
        <mxCell id="JDIGhHd4CEicn7E4zc0f-60" value="Contains statically" style="endArrow=diamondThin;endFill=1;endSize=24;html=1;rounded=0;edgeStyle=orthogonalEdgeStyle;" parent="1" source="JDIGhHd4CEicn7E4zc0f-51" target="JDIGhHd4CEicn7E4zc0f-42" edge="1">
          <mxGeometry width="160" relative="1" as="geometry">
            <mxPoint x="500" y="1122" as="sourcePoint" />
            <mxPoint x="360" y="1068" as="targetPoint" />
            <Array as="points">
              <mxPoint x="600" y="1150" />
              <mxPoint x="320" y="1150" />
            </Array>
          </mxGeometry>
        </mxCell>
        <mxCell id="JDIGhHd4CEicn7E4zc0f-61" value="Context" style="swimlane;fontStyle=1;align=center;verticalAlign=top;childLayout=stackLayout;horizontal=1;startSize=26;horizontalStack=0;resizeParent=1;resizeParentMax=0;resizeLast=0;collapsible=1;marginBottom=0;whiteSpace=wrap;html=1;" parent="1" vertex="1">
          <mxGeometry x="280" y="1360" width="140" height="190" as="geometry" />
        </mxCell>
        <mxCell id="JDIGhHd4CEicn7E4zc0f-81" value="+GetData():Data" style="text;strokeColor=none;fillColor=none;align=left;verticalAlign=top;spacingLeft=4;spacingRight=4;overflow=hidden;rotatable=0;points=[[0,0.5],[1,0.5]];portConstraint=eastwest;whiteSpace=wrap;html=1;" parent="JDIGhHd4CEicn7E4zc0f-61" vertex="1">
          <mxGeometry y="26" width="140" height="26" as="geometry" />
        </mxCell>
        <mxCell id="JDIGhHd4CEicn7E4zc0f-62" value="+Action()" style="text;strokeColor=none;fillColor=none;align=left;verticalAlign=top;spacingLeft=4;spacingRight=4;overflow=hidden;rotatable=0;points=[[0,0.5],[1,0.5]];portConstraint=eastwest;whiteSpace=wrap;html=1;" parent="JDIGhHd4CEicn7E4zc0f-61" vertex="1">
          <mxGeometry y="52" width="140" height="26" as="geometry" />
        </mxCell>
        <mxCell id="JDIGhHd4CEicn7E4zc0f-63" value="" style="line;strokeWidth=1;fillColor=none;align=left;verticalAlign=middle;spacingTop=-1;spacingLeft=3;spacingRight=3;rotatable=0;labelPosition=right;points=[];portConstraint=eastwest;strokeColor=inherit;" parent="JDIGhHd4CEicn7E4zc0f-61" vertex="1">
          <mxGeometry y="78" width="140" height="8" as="geometry" />
        </mxCell>
        <mxCell id="JDIGhHd4CEicn7E4zc0f-64" value="-m_data:Data" style="text;strokeColor=none;fillColor=none;align=left;verticalAlign=top;spacingLeft=4;spacingRight=4;overflow=hidden;rotatable=0;points=[[0,0.5],[1,0.5]];portConstraint=eastwest;whiteSpace=wrap;html=1;" parent="JDIGhHd4CEicn7E4zc0f-61" vertex="1">
          <mxGeometry y="86" width="140" height="26" as="geometry" />
        </mxCell>
        <mxCell id="JDIGhHd4CEicn7E4zc0f-80" value="-m_state:State" style="text;strokeColor=none;fillColor=none;align=left;verticalAlign=top;spacingLeft=4;spacingRight=4;overflow=hidden;rotatable=0;points=[[0,0.5],[1,0.5]];portConstraint=eastwest;whiteSpace=wrap;html=1;" parent="JDIGhHd4CEicn7E4zc0f-61" vertex="1">
          <mxGeometry y="112" width="140" height="26" as="geometry" />
        </mxCell>
        <mxCell id="JDIGhHd4CEicn7E4zc0f-65" value="-m_stateA:StateA" style="text;strokeColor=none;fillColor=none;align=left;verticalAlign=top;spacingLeft=4;spacingRight=4;overflow=hidden;rotatable=0;points=[[0,0.5],[1,0.5]];portConstraint=eastwest;whiteSpace=wrap;html=1;fontStyle=4" parent="JDIGhHd4CEicn7E4zc0f-61" vertex="1">
          <mxGeometry y="138" width="140" height="26" as="geometry" />
        </mxCell>
        <mxCell id="JDIGhHd4CEicn7E4zc0f-66" value="&lt;u&gt;-m_stateB:StateB&lt;/u&gt;" style="text;strokeColor=none;fillColor=none;align=left;verticalAlign=top;spacingLeft=4;spacingRight=4;overflow=hidden;rotatable=0;points=[[0,0.5],[1,0.5]];portConstraint=eastwest;whiteSpace=wrap;html=1;" parent="JDIGhHd4CEicn7E4zc0f-61" vertex="1">
          <mxGeometry y="164" width="140" height="26" as="geometry" />
        </mxCell>
        <mxCell id="JDIGhHd4CEicn7E4zc0f-67" value="&lt;i&gt;&amp;lt;&amp;lt;interface&amp;gt;&amp;gt;&lt;br&gt;State&lt;/i&gt;" style="swimlane;fontStyle=1;align=center;verticalAlign=top;childLayout=stackLayout;horizontal=1;startSize=40;horizontalStack=0;resizeParent=1;resizeParentMax=0;resizeLast=0;collapsible=1;marginBottom=0;whiteSpace=wrap;html=1;" parent="1" vertex="1">
          <mxGeometry x="600" y="1300" width="170" height="66" as="geometry" />
        </mxCell>
        <mxCell id="JDIGhHd4CEicn7E4zc0f-68" value="+Action(ctx:Context&amp;amp;)" style="text;strokeColor=#d6b656;fillColor=#fff2cc;align=left;verticalAlign=top;spacingLeft=4;spacingRight=4;overflow=hidden;rotatable=0;points=[[0,0.5],[1,0.5]];portConstraint=eastwest;whiteSpace=wrap;html=1;fontStyle=2" parent="JDIGhHd4CEicn7E4zc0f-67" vertex="1">
          <mxGeometry y="40" width="170" height="26" as="geometry" />
        </mxCell>
        <mxCell id="JDIGhHd4CEicn7E4zc0f-69" value="" style="endArrow=diamondThin;endFill=0;endSize=24;html=1;rounded=0;" parent="1" source="JDIGhHd4CEicn7E4zc0f-67" target="JDIGhHd4CEicn7E4zc0f-61" edge="1">
          <mxGeometry width="160" relative="1" as="geometry">
            <mxPoint x="240" y="1490" as="sourcePoint" />
            <mxPoint x="400" y="1490" as="targetPoint" />
          </mxGeometry>
        </mxCell>
        <mxCell id="JDIGhHd4CEicn7E4zc0f-70" value="StateA" style="swimlane;fontStyle=1;align=center;verticalAlign=top;childLayout=stackLayout;horizontal=1;startSize=26;horizontalStack=0;resizeParent=1;resizeParentMax=0;resizeLast=0;collapsible=1;marginBottom=0;whiteSpace=wrap;html=1;" parent="1" vertex="1">
          <mxGeometry x="500" y="1498" width="140" height="52" as="geometry" />
        </mxCell>
        <mxCell id="JDIGhHd4CEicn7E4zc0f-71" value="+Action(ctx:Context&amp;amp;)" style="text;strokeColor=#d6b656;fillColor=#fff2cc;align=left;verticalAlign=top;spacingLeft=4;spacingRight=4;overflow=hidden;rotatable=0;points=[[0,0.5],[1,0.5]];portConstraint=eastwest;whiteSpace=wrap;html=1;" parent="JDIGhHd4CEicn7E4zc0f-70" vertex="1">
          <mxGeometry y="26" width="140" height="26" as="geometry" />
        </mxCell>
        <mxCell id="JDIGhHd4CEicn7E4zc0f-72" value="StateB" style="swimlane;fontStyle=1;align=center;verticalAlign=top;childLayout=stackLayout;horizontal=1;startSize=26;horizontalStack=0;resizeParent=1;resizeParentMax=0;resizeLast=0;collapsible=1;marginBottom=0;whiteSpace=wrap;html=1;" parent="1" vertex="1">
          <mxGeometry x="650" y="1446" width="140" height="52" as="geometry" />
        </mxCell>
        <mxCell id="JDIGhHd4CEicn7E4zc0f-73" value="+Action(ctx:Context&amp;amp;)" style="text;strokeColor=#d6b656;fillColor=#fff2cc;align=left;verticalAlign=top;spacingLeft=4;spacingRight=4;overflow=hidden;rotatable=0;points=[[0,0.5],[1,0.5]];portConstraint=eastwest;whiteSpace=wrap;html=1;" parent="JDIGhHd4CEicn7E4zc0f-72" vertex="1">
          <mxGeometry y="26" width="140" height="26" as="geometry" />
        </mxCell>
        <mxCell id="JDIGhHd4CEicn7E4zc0f-74" value="" style="endArrow=block;dashed=1;endFill=0;endSize=12;html=1;rounded=0;" parent="1" source="JDIGhHd4CEicn7E4zc0f-70" target="JDIGhHd4CEicn7E4zc0f-67" edge="1">
          <mxGeometry width="160" relative="1" as="geometry">
            <mxPoint x="420" y="1470" as="sourcePoint" />
            <mxPoint x="580" y="1470" as="targetPoint" />
          </mxGeometry>
        </mxCell>
        <mxCell id="JDIGhHd4CEicn7E4zc0f-75" value="" style="endArrow=block;dashed=1;endFill=0;endSize=12;html=1;rounded=0;" parent="1" source="JDIGhHd4CEicn7E4zc0f-72" target="JDIGhHd4CEicn7E4zc0f-67" edge="1">
          <mxGeometry width="160" relative="1" as="geometry">
            <mxPoint x="420" y="1470" as="sourcePoint" />
            <mxPoint x="580" y="1470" as="targetPoint" />
          </mxGeometry>
        </mxCell>
        <mxCell id="JDIGhHd4CEicn7E4zc0f-76" value="Contains statically" style="endArrow=diamondThin;endFill=1;endSize=24;html=1;rounded=0;edgeStyle=orthogonalEdgeStyle;" parent="1" source="JDIGhHd4CEicn7E4zc0f-70" target="JDIGhHd4CEicn7E4zc0f-61" edge="1">
          <mxGeometry x="-0.2349" width="160" relative="1" as="geometry">
            <mxPoint x="220" y="1610" as="sourcePoint" />
            <mxPoint x="380" y="1610" as="targetPoint" />
            <Array as="points">
              <mxPoint x="560" y="1580" />
              <mxPoint x="350" y="1580" />
            </Array>
            <mxPoint as="offset" />
          </mxGeometry>
        </mxCell>
        <mxCell id="JDIGhHd4CEicn7E4zc0f-77" value="Contains statically" style="endArrow=diamondThin;endFill=1;endSize=24;html=1;rounded=0;edgeStyle=orthogonalEdgeStyle;" parent="1" source="JDIGhHd4CEicn7E4zc0f-72" target="JDIGhHd4CEicn7E4zc0f-61" edge="1">
          <mxGeometry width="160" relative="1" as="geometry">
            <mxPoint x="500" y="1562" as="sourcePoint" />
            <mxPoint x="360" y="1508" as="targetPoint" />
            <Array as="points">
              <mxPoint x="730" y="1600" />
              <mxPoint x="320" y="1600" />
            </Array>
          </mxGeometry>
        </mxCell>
        <mxCell id="JDIGhHd4CEicn7E4zc0f-82" value="Data" style="swimlane;fontStyle=1;align=center;verticalAlign=top;childLayout=stackLayout;horizontal=1;startSize=26;horizontalStack=0;resizeParent=1;resizeParentMax=0;resizeLast=0;collapsible=1;marginBottom=0;whiteSpace=wrap;html=1;" parent="1" vertex="1">
          <mxGeometry x="450" y="1300" width="100" height="52" as="geometry" />
        </mxCell>
        <mxCell id="JDIGhHd4CEicn7E4zc0f-84" value="" style="endArrow=diamondThin;endFill=1;endSize=24;html=1;rounded=0;" parent="1" source="JDIGhHd4CEicn7E4zc0f-82" target="JDIGhHd4CEicn7E4zc0f-61" edge="1">
          <mxGeometry width="160" relative="1" as="geometry">
            <mxPoint x="160" y="1320" as="sourcePoint" />
            <mxPoint x="320" y="1320" as="targetPoint" />
          </mxGeometry>
        </mxCell>
        <mxCell id="JDIGhHd4CEicn7E4zc0f-85" value="&lt;pre&gt;&lt;font face=&quot;Lucida Console&quot;&gt;m_state.Action(*this);&lt;/font&gt;&lt;/pre&gt;" style="shape=note;whiteSpace=wrap;html=1;backgroundOutline=1;darkOpacity=0.05;align=left;size=13;fillColor=#fff2cc;strokeColor=#d6b656;" parent="1" vertex="1">
          <mxGeometry x="280" y="1635" width="175" height="30" as="geometry" />
        </mxCell>
        <mxCell id="JDIGhHd4CEicn7E4zc0f-86" style="edgeStyle=orthogonalEdgeStyle;rounded=0;orthogonalLoop=1;jettySize=auto;html=1;" parent="1" source="JDIGhHd4CEicn7E4zc0f-62" target="JDIGhHd4CEicn7E4zc0f-85" edge="1">
          <mxGeometry relative="1" as="geometry">
            <Array as="points">
              <mxPoint x="210" y="1425" />
              <mxPoint x="210" y="1650" />
            </Array>
          </mxGeometry>
        </mxCell>
        <mxCell id="JDIGhHd4CEicn7E4zc0f-87" value="Use" style="endArrow=open;endSize=12;dashed=1;html=1;rounded=0;" parent="1" source="JDIGhHd4CEicn7E4zc0f-70" target="JDIGhHd4CEicn7E4zc0f-61" edge="1">
          <mxGeometry width="160" relative="1" as="geometry">
            <mxPoint x="560" y="1680" as="sourcePoint" />
            <mxPoint x="720" y="1680" as="targetPoint" />
          </mxGeometry>
        </mxCell>
        <mxCell id="JDIGhHd4CEicn7E4zc0f-88" value="Use" style="endArrow=open;endSize=12;dashed=1;html=1;rounded=0;" parent="1" source="JDIGhHd4CEicn7E4zc0f-72" target="JDIGhHd4CEicn7E4zc0f-61" edge="1">
          <mxGeometry width="160" relative="1" as="geometry">
            <mxPoint x="560" y="1680" as="sourcePoint" />
            <mxPoint x="720" y="1680" as="targetPoint" />
          </mxGeometry>
        </mxCell>
        <mxCell id="JDIGhHd4CEicn7E4zc0f-89" value="Use" style="endArrow=open;endSize=12;dashed=1;html=1;rounded=0;" parent="1" source="JDIGhHd4CEicn7E4zc0f-70" target="JDIGhHd4CEicn7E4zc0f-82" edge="1">
          <mxGeometry width="160" relative="1" as="geometry">
            <mxPoint x="560" y="1680" as="sourcePoint" />
            <mxPoint x="720" y="1680" as="targetPoint" />
          </mxGeometry>
        </mxCell>
        <mxCell id="JDIGhHd4CEicn7E4zc0f-90" value="Use" style="endArrow=open;endSize=12;dashed=1;html=1;rounded=0;" parent="1" source="JDIGhHd4CEicn7E4zc0f-72" target="JDIGhHd4CEicn7E4zc0f-82" edge="1">
          <mxGeometry width="160" relative="1" as="geometry">
            <mxPoint x="560" y="1680" as="sourcePoint" />
            <mxPoint x="720" y="1680" as="targetPoint" />
          </mxGeometry>
        </mxCell>
        <mxCell id="TpdD24qYPQaRV9hD5xxR-1" value="&lt;i style=&quot;font-weight: normal;&quot;&gt;&amp;lt;&amp;lt;interface&amp;gt;&amp;gt;&lt;/i&gt;&lt;br&gt;&lt;i&gt;IState&lt;/i&gt;" style="swimlane;fontStyle=1;align=center;verticalAlign=top;childLayout=stackLayout;horizontal=1;startSize=40;horizontalStack=0;resizeParent=1;resizeParentMax=0;resizeLast=0;collapsible=1;marginBottom=0;whiteSpace=wrap;html=1;" parent="1" vertex="1">
          <mxGeometry x="449.94" y="-600" width="160" height="170" as="geometry" />
        </mxCell>
        <mxCell id="TpdD24qYPQaRV9hD5xxR-2" value="+InsertQuarter()" style="text;strokeColor=none;fillColor=none;align=left;verticalAlign=top;spacingLeft=4;spacingRight=4;overflow=hidden;rotatable=0;points=[[0,0.5],[1,0.5]];portConstraint=eastwest;whiteSpace=wrap;html=1;fontStyle=2" parent="TpdD24qYPQaRV9hD5xxR-1" vertex="1">
          <mxGeometry y="40" width="160" height="26" as="geometry" />
        </mxCell>
        <mxCell id="TpdD24qYPQaRV9hD5xxR-3" value="+EjectQuarter()" style="text;strokeColor=none;fillColor=none;align=left;verticalAlign=top;spacingLeft=4;spacingRight=4;overflow=hidden;rotatable=0;points=[[0,0.5],[1,0.5]];portConstraint=eastwest;whiteSpace=wrap;html=1;fontStyle=2" parent="TpdD24qYPQaRV9hD5xxR-1" vertex="1">
          <mxGeometry y="66" width="160" height="26" as="geometry" />
        </mxCell>
        <mxCell id="TpdD24qYPQaRV9hD5xxR-4" value="+TurnCrank()" style="text;strokeColor=none;fillColor=none;align=left;verticalAlign=top;spacingLeft=4;spacingRight=4;overflow=hidden;rotatable=0;points=[[0,0.5],[1,0.5]];portConstraint=eastwest;whiteSpace=wrap;html=1;fontStyle=2" parent="TpdD24qYPQaRV9hD5xxR-1" vertex="1">
          <mxGeometry y="92" width="160" height="26" as="geometry" />
        </mxCell>
        <mxCell id="TpdD24qYPQaRV9hD5xxR-5" value="+Dispense()" style="text;strokeColor=none;fillColor=none;align=left;verticalAlign=top;spacingLeft=4;spacingRight=4;overflow=hidden;rotatable=0;points=[[0,0.5],[1,0.5]];portConstraint=eastwest;whiteSpace=wrap;html=1;fontStyle=2" parent="TpdD24qYPQaRV9hD5xxR-1" vertex="1">
          <mxGeometry y="118" width="160" height="26" as="geometry" />
        </mxCell>
        <mxCell id="TpdD24qYPQaRV9hD5xxR-6" value="+ToString()" style="text;strokeColor=none;fillColor=none;align=left;verticalAlign=top;spacingLeft=4;spacingRight=4;overflow=hidden;rotatable=0;points=[[0,0.5],[1,0.5]];portConstraint=eastwest;whiteSpace=wrap;html=1;fontStyle=2" parent="TpdD24qYPQaRV9hD5xxR-1" vertex="1">
          <mxGeometry y="144" width="160" height="26" as="geometry" />
        </mxCell>
        <mxCell id="TpdD24qYPQaRV9hD5xxR-7" value="SoldState" style="swimlane;fontStyle=1;align=center;verticalAlign=top;childLayout=stackLayout;horizontal=1;startSize=26;horizontalStack=0;resizeParent=1;resizeParentMax=0;resizeLast=0;collapsible=1;marginBottom=0;whiteSpace=wrap;html=1;" parent="1" vertex="1">
          <mxGeometry x="59.94" y="-340" width="230" height="86" as="geometry" />
        </mxCell>
        <mxCell id="TpdD24qYPQaRV9hD5xxR-12" value="... реализуем методы IState" style="text;strokeColor=none;fillColor=none;align=left;verticalAlign=top;spacingLeft=4;spacingRight=4;overflow=hidden;rotatable=0;points=[[0,0.5],[1,0.5]];portConstraint=eastwest;whiteSpace=wrap;html=1;" parent="TpdD24qYPQaRV9hD5xxR-7" vertex="1">
          <mxGeometry y="26" width="230" height="26" as="geometry" />
        </mxCell>
        <mxCell id="TpdD24qYPQaRV9hD5xxR-13" value="" style="line;strokeWidth=1;fillColor=none;align=left;verticalAlign=middle;spacingTop=-1;spacingLeft=3;spacingRight=3;rotatable=0;labelPosition=right;points=[];portConstraint=eastwest;strokeColor=inherit;" parent="TpdD24qYPQaRV9hD5xxR-7" vertex="1">
          <mxGeometry y="52" width="230" height="8" as="geometry" />
        </mxCell>
        <mxCell id="TpdD24qYPQaRV9hD5xxR-10" value="-m_gumballMachine:IGumballMachine" style="text;strokeColor=none;fillColor=none;align=left;verticalAlign=top;spacingLeft=4;spacingRight=4;overflow=hidden;rotatable=0;points=[[0,0.5],[1,0.5]];portConstraint=eastwest;whiteSpace=wrap;html=1;" parent="TpdD24qYPQaRV9hD5xxR-7" vertex="1">
          <mxGeometry y="60" width="230" height="26" as="geometry" />
        </mxCell>
        <mxCell id="TpdD24qYPQaRV9hD5xxR-11" value="" style="endArrow=block;dashed=1;endFill=0;endSize=12;html=1;rounded=0;" parent="1" source="TpdD24qYPQaRV9hD5xxR-7" target="TpdD24qYPQaRV9hD5xxR-1" edge="1">
          <mxGeometry width="160" relative="1" as="geometry">
            <mxPoint x="329.94" y="-310" as="sourcePoint" />
            <mxPoint x="489.94" y="-310" as="targetPoint" />
          </mxGeometry>
        </mxCell>
        <mxCell id="TpdD24qYPQaRV9hD5xxR-14" value="SoldOutState" style="swimlane;fontStyle=1;align=center;verticalAlign=top;childLayout=stackLayout;horizontal=1;startSize=26;horizontalStack=0;resizeParent=1;resizeParentMax=0;resizeLast=0;collapsible=1;marginBottom=0;whiteSpace=wrap;html=1;" parent="1" vertex="1">
          <mxGeometry x="299.94" y="-340" width="230" height="86" as="geometry" />
        </mxCell>
        <mxCell id="TpdD24qYPQaRV9hD5xxR-15" value="... реализуем методы IState" style="text;strokeColor=none;fillColor=none;align=left;verticalAlign=top;spacingLeft=4;spacingRight=4;overflow=hidden;rotatable=0;points=[[0,0.5],[1,0.5]];portConstraint=eastwest;whiteSpace=wrap;html=1;" parent="TpdD24qYPQaRV9hD5xxR-14" vertex="1">
          <mxGeometry y="26" width="230" height="26" as="geometry" />
        </mxCell>
        <mxCell id="TpdD24qYPQaRV9hD5xxR-16" value="" style="line;strokeWidth=1;fillColor=none;align=left;verticalAlign=middle;spacingTop=-1;spacingLeft=3;spacingRight=3;rotatable=0;labelPosition=right;points=[];portConstraint=eastwest;strokeColor=inherit;" parent="TpdD24qYPQaRV9hD5xxR-14" vertex="1">
          <mxGeometry y="52" width="230" height="8" as="geometry" />
        </mxCell>
        <mxCell id="TpdD24qYPQaRV9hD5xxR-17" value="-m_gumballMachine:IGumballMachine" style="text;strokeColor=none;fillColor=none;align=left;verticalAlign=top;spacingLeft=4;spacingRight=4;overflow=hidden;rotatable=0;points=[[0,0.5],[1,0.5]];portConstraint=eastwest;whiteSpace=wrap;html=1;" parent="TpdD24qYPQaRV9hD5xxR-14" vertex="1">
          <mxGeometry y="60" width="230" height="26" as="geometry" />
        </mxCell>
        <mxCell id="TpdD24qYPQaRV9hD5xxR-18" value="" style="endArrow=block;dashed=1;endFill=0;endSize=12;html=1;rounded=0;" parent="1" source="TpdD24qYPQaRV9hD5xxR-14" target="TpdD24qYPQaRV9hD5xxR-1" edge="1">
          <mxGeometry width="160" relative="1" as="geometry">
            <mxPoint x="329.94" y="-310" as="sourcePoint" />
            <mxPoint x="489.94" y="-310" as="targetPoint" />
          </mxGeometry>
        </mxCell>
        <mxCell id="TpdD24qYPQaRV9hD5xxR-19" value="HasQuarterState" style="swimlane;fontStyle=1;align=center;verticalAlign=top;childLayout=stackLayout;horizontal=1;startSize=26;horizontalStack=0;resizeParent=1;resizeParentMax=0;resizeLast=0;collapsible=1;marginBottom=0;whiteSpace=wrap;html=1;" parent="1" vertex="1">
          <mxGeometry x="539.94" y="-340" width="230" height="86" as="geometry" />
        </mxCell>
        <mxCell id="TpdD24qYPQaRV9hD5xxR-20" value="... реализуем методы IState" style="text;strokeColor=none;fillColor=none;align=left;verticalAlign=top;spacingLeft=4;spacingRight=4;overflow=hidden;rotatable=0;points=[[0,0.5],[1,0.5]];portConstraint=eastwest;whiteSpace=wrap;html=1;" parent="TpdD24qYPQaRV9hD5xxR-19" vertex="1">
          <mxGeometry y="26" width="230" height="26" as="geometry" />
        </mxCell>
        <mxCell id="TpdD24qYPQaRV9hD5xxR-21" value="" style="line;strokeWidth=1;fillColor=none;align=left;verticalAlign=middle;spacingTop=-1;spacingLeft=3;spacingRight=3;rotatable=0;labelPosition=right;points=[];portConstraint=eastwest;strokeColor=inherit;" parent="TpdD24qYPQaRV9hD5xxR-19" vertex="1">
          <mxGeometry y="52" width="230" height="8" as="geometry" />
        </mxCell>
        <mxCell id="TpdD24qYPQaRV9hD5xxR-22" value="-m_gumballMachine:IGumballMachine" style="text;strokeColor=none;fillColor=none;align=left;verticalAlign=top;spacingLeft=4;spacingRight=4;overflow=hidden;rotatable=0;points=[[0,0.5],[1,0.5]];portConstraint=eastwest;whiteSpace=wrap;html=1;" parent="TpdD24qYPQaRV9hD5xxR-19" vertex="1">
          <mxGeometry y="60" width="230" height="26" as="geometry" />
        </mxCell>
        <mxCell id="TpdD24qYPQaRV9hD5xxR-23" value="NoQuarterState" style="swimlane;fontStyle=1;align=center;verticalAlign=top;childLayout=stackLayout;horizontal=1;startSize=26;horizontalStack=0;resizeParent=1;resizeParentMax=0;resizeLast=0;collapsible=1;marginBottom=0;whiteSpace=wrap;html=1;" parent="1" vertex="1">
          <mxGeometry x="789.94" y="-340" width="230" height="86" as="geometry" />
        </mxCell>
        <mxCell id="TpdD24qYPQaRV9hD5xxR-24" value="... реализуем методы IState" style="text;strokeColor=none;fillColor=none;align=left;verticalAlign=top;spacingLeft=4;spacingRight=4;overflow=hidden;rotatable=0;points=[[0,0.5],[1,0.5]];portConstraint=eastwest;whiteSpace=wrap;html=1;" parent="TpdD24qYPQaRV9hD5xxR-23" vertex="1">
          <mxGeometry y="26" width="230" height="26" as="geometry" />
        </mxCell>
        <mxCell id="TpdD24qYPQaRV9hD5xxR-25" value="" style="line;strokeWidth=1;fillColor=none;align=left;verticalAlign=middle;spacingTop=-1;spacingLeft=3;spacingRight=3;rotatable=0;labelPosition=right;points=[];portConstraint=eastwest;strokeColor=inherit;" parent="TpdD24qYPQaRV9hD5xxR-23" vertex="1">
          <mxGeometry y="52" width="230" height="8" as="geometry" />
        </mxCell>
        <mxCell id="TpdD24qYPQaRV9hD5xxR-26" value="-m_gumballMachine:IGumballMachine" style="text;strokeColor=none;fillColor=none;align=left;verticalAlign=top;spacingLeft=4;spacingRight=4;overflow=hidden;rotatable=0;points=[[0,0.5],[1,0.5]];portConstraint=eastwest;whiteSpace=wrap;html=1;" parent="TpdD24qYPQaRV9hD5xxR-23" vertex="1">
          <mxGeometry y="60" width="230" height="26" as="geometry" />
        </mxCell>
        <mxCell id="TpdD24qYPQaRV9hD5xxR-27" value="" style="endArrow=block;dashed=1;endFill=0;endSize=12;html=1;rounded=0;" parent="1" source="TpdD24qYPQaRV9hD5xxR-19" target="TpdD24qYPQaRV9hD5xxR-1" edge="1">
          <mxGeometry width="160" relative="1" as="geometry">
            <mxPoint x="329.94" y="-310" as="sourcePoint" />
            <mxPoint x="489.94" y="-310" as="targetPoint" />
          </mxGeometry>
        </mxCell>
        <mxCell id="TpdD24qYPQaRV9hD5xxR-28" value="" style="endArrow=block;dashed=1;endFill=0;endSize=12;html=1;rounded=0;" parent="1" source="TpdD24qYPQaRV9hD5xxR-23" target="TpdD24qYPQaRV9hD5xxR-1" edge="1">
          <mxGeometry width="160" relative="1" as="geometry">
            <mxPoint x="329.94" y="-310" as="sourcePoint" />
            <mxPoint x="489.94" y="-310" as="targetPoint" />
          </mxGeometry>
        </mxCell>
        <mxCell id="TpdD24qYPQaRV9hD5xxR-29" value="&lt;i style=&quot;font-weight: normal;&quot;&gt;&amp;lt;&amp;lt;interface&amp;gt;&amp;gt;&lt;/i&gt;&lt;br&gt;&lt;i&gt;IGumballMachine&lt;/i&gt;" style="swimlane;fontStyle=1;align=center;verticalAlign=top;childLayout=stackLayout;horizontal=1;startSize=40;horizontalStack=0;resizeParent=1;resizeParentMax=0;resizeLast=0;collapsible=1;marginBottom=0;whiteSpace=wrap;html=1;" parent="1" vertex="1">
          <mxGeometry x="564.94" y="-130" width="180" height="196" as="geometry" />
        </mxCell>
        <mxCell id="TpdD24qYPQaRV9hD5xxR-30" value="+ReleaseBall()" style="text;strokeColor=none;fillColor=none;align=left;verticalAlign=top;spacingLeft=4;spacingRight=4;overflow=hidden;rotatable=0;points=[[0,0.5],[1,0.5]];portConstraint=eastwest;whiteSpace=wrap;html=1;fontStyle=2" parent="TpdD24qYPQaRV9hD5xxR-29" vertex="1">
          <mxGeometry y="40" width="180" height="26" as="geometry" />
        </mxCell>
        <mxCell id="TpdD24qYPQaRV9hD5xxR-31" value="+GetBallCount():unsigned" style="text;strokeColor=none;fillColor=none;align=left;verticalAlign=top;spacingLeft=4;spacingRight=4;overflow=hidden;rotatable=0;points=[[0,0.5],[1,0.5]];portConstraint=eastwest;whiteSpace=wrap;html=1;fontStyle=2" parent="TpdD24qYPQaRV9hD5xxR-29" vertex="1">
          <mxGeometry y="66" width="180" height="26" as="geometry" />
        </mxCell>
        <mxCell id="TpdD24qYPQaRV9hD5xxR-32" value="+SetSoldOutState()" style="text;strokeColor=none;fillColor=none;align=left;verticalAlign=top;spacingLeft=4;spacingRight=4;overflow=hidden;rotatable=0;points=[[0,0.5],[1,0.5]];portConstraint=eastwest;whiteSpace=wrap;html=1;fontStyle=2" parent="TpdD24qYPQaRV9hD5xxR-29" vertex="1">
          <mxGeometry y="92" width="180" height="26" as="geometry" />
        </mxCell>
        <mxCell id="TpdD24qYPQaRV9hD5xxR-39" value="+SetNoQuarterState()" style="text;strokeColor=none;fillColor=none;align=left;verticalAlign=top;spacingLeft=4;spacingRight=4;overflow=hidden;rotatable=0;points=[[0,0.5],[1,0.5]];portConstraint=eastwest;whiteSpace=wrap;html=1;fontStyle=2" parent="TpdD24qYPQaRV9hD5xxR-29" vertex="1">
          <mxGeometry y="118" width="180" height="26" as="geometry" />
        </mxCell>
        <mxCell id="TpdD24qYPQaRV9hD5xxR-40" value="+SetSoldState()" style="text;strokeColor=none;fillColor=none;align=left;verticalAlign=top;spacingLeft=4;spacingRight=4;overflow=hidden;rotatable=0;points=[[0,0.5],[1,0.5]];portConstraint=eastwest;whiteSpace=wrap;html=1;fontStyle=2" parent="TpdD24qYPQaRV9hD5xxR-29" vertex="1">
          <mxGeometry y="144" width="180" height="26" as="geometry" />
        </mxCell>
        <mxCell id="TpdD24qYPQaRV9hD5xxR-41" value="+SetHasQuarterState()" style="text;strokeColor=none;fillColor=none;align=left;verticalAlign=top;spacingLeft=4;spacingRight=4;overflow=hidden;rotatable=0;points=[[0,0.5],[1,0.5]];portConstraint=eastwest;whiteSpace=wrap;html=1;fontStyle=2" parent="TpdD24qYPQaRV9hD5xxR-29" vertex="1">
          <mxGeometry y="170" width="180" height="26" as="geometry" />
        </mxCell>
        <mxCell id="TpdD24qYPQaRV9hD5xxR-35" value="" style="endArrow=diamondThin;endFill=0;endSize=24;html=1;rounded=0;" parent="1" source="TpdD24qYPQaRV9hD5xxR-29" target="TpdD24qYPQaRV9hD5xxR-7" edge="1">
          <mxGeometry width="160" relative="1" as="geometry">
            <mxPoint x="129.94" y="-160" as="sourcePoint" />
            <mxPoint x="289.94" y="-160" as="targetPoint" />
          </mxGeometry>
        </mxCell>
        <mxCell id="TpdD24qYPQaRV9hD5xxR-36" value="" style="endArrow=diamondThin;endFill=0;endSize=24;html=1;rounded=0;" parent="1" source="TpdD24qYPQaRV9hD5xxR-29" target="TpdD24qYPQaRV9hD5xxR-14" edge="1">
          <mxGeometry width="160" relative="1" as="geometry">
            <mxPoint x="129.94" y="-160" as="sourcePoint" />
            <mxPoint x="289.94" y="-160" as="targetPoint" />
          </mxGeometry>
        </mxCell>
        <mxCell id="TpdD24qYPQaRV9hD5xxR-37" value="" style="endArrow=diamondThin;endFill=0;endSize=24;html=1;rounded=0;" parent="1" source="TpdD24qYPQaRV9hD5xxR-29" target="TpdD24qYPQaRV9hD5xxR-19" edge="1">
          <mxGeometry width="160" relative="1" as="geometry">
            <mxPoint x="129.94" y="-160" as="sourcePoint" />
            <mxPoint x="289.94" y="-160" as="targetPoint" />
          </mxGeometry>
        </mxCell>
        <mxCell id="TpdD24qYPQaRV9hD5xxR-38" value="" style="endArrow=diamondThin;endFill=0;endSize=24;html=1;rounded=0;" parent="1" source="TpdD24qYPQaRV9hD5xxR-29" target="TpdD24qYPQaRV9hD5xxR-23" edge="1">
          <mxGeometry width="160" relative="1" as="geometry">
            <mxPoint x="129.94" y="-160" as="sourcePoint" />
            <mxPoint x="289.94" y="-160" as="targetPoint" />
          </mxGeometry>
        </mxCell>
        <mxCell id="TpdD24qYPQaRV9hD5xxR-42" value="GumballMachine" style="swimlane;fontStyle=1;align=center;verticalAlign=top;childLayout=stackLayout;horizontal=1;startSize=26;horizontalStack=0;resizeParent=1;resizeParentMax=0;resizeLast=0;collapsible=1;marginBottom=0;whiteSpace=wrap;html=1;" parent="1" vertex="1">
          <mxGeometry x="39.94" y="-170" width="220" height="328" as="geometry" />
        </mxCell>
        <mxCell id="TpdD24qYPQaRV9hD5xxR-56" value="+TurnCrank()" style="text;strokeColor=none;fillColor=none;align=left;verticalAlign=top;spacingLeft=4;spacingRight=4;overflow=hidden;rotatable=0;points=[[0,0.5],[1,0.5]];portConstraint=eastwest;whiteSpace=wrap;html=1;" parent="TpdD24qYPQaRV9hD5xxR-42" vertex="1">
          <mxGeometry y="26" width="220" height="26" as="geometry" />
        </mxCell>
        <mxCell id="TpdD24qYPQaRV9hD5xxR-57" value="+InsertQuarter()" style="text;strokeColor=none;fillColor=none;align=left;verticalAlign=top;spacingLeft=4;spacingRight=4;overflow=hidden;rotatable=0;points=[[0,0.5],[1,0.5]];portConstraint=eastwest;whiteSpace=wrap;html=1;" parent="TpdD24qYPQaRV9hD5xxR-42" vertex="1">
          <mxGeometry y="52" width="220" height="26" as="geometry" />
        </mxCell>
        <mxCell id="TpdD24qYPQaRV9hD5xxR-58" value="+EjectQuarter()" style="text;strokeColor=none;fillColor=none;align=left;verticalAlign=top;spacingLeft=4;spacingRight=4;overflow=hidden;rotatable=0;points=[[0,0.5],[1,0.5]];portConstraint=eastwest;whiteSpace=wrap;html=1;" parent="TpdD24qYPQaRV9hD5xxR-42" vertex="1">
          <mxGeometry y="78" width="220" height="26" as="geometry" />
        </mxCell>
        <mxCell id="TpdD24qYPQaRV9hD5xxR-59" value="+ToString()" style="text;strokeColor=none;fillColor=none;align=left;verticalAlign=top;spacingLeft=4;spacingRight=4;overflow=hidden;rotatable=0;points=[[0,0.5],[1,0.5]];portConstraint=eastwest;whiteSpace=wrap;html=1;" parent="TpdD24qYPQaRV9hD5xxR-42" vertex="1">
          <mxGeometry y="104" width="220" height="26" as="geometry" />
        </mxCell>
        <mxCell id="TpdD24qYPQaRV9hD5xxR-60" value="" style="line;strokeWidth=1;fillColor=none;align=left;verticalAlign=middle;spacingTop=-1;spacingLeft=3;spacingRight=3;rotatable=0;labelPosition=right;points=[];portConstraint=eastwest;strokeColor=inherit;" parent="TpdD24qYPQaRV9hD5xxR-42" vertex="1">
          <mxGeometry y="130" width="220" height="8" as="geometry" />
        </mxCell>
        <mxCell id="TpdD24qYPQaRV9hD5xxR-43" value="...Методы IGumballMachine" style="text;strokeColor=none;fillColor=none;align=left;verticalAlign=top;spacingLeft=4;spacingRight=4;overflow=hidden;rotatable=0;points=[[0,0.5],[1,0.5]];portConstraint=eastwest;whiteSpace=wrap;html=1;" parent="TpdD24qYPQaRV9hD5xxR-42" vertex="1">
          <mxGeometry y="138" width="220" height="26" as="geometry" />
        </mxCell>
        <mxCell id="TpdD24qYPQaRV9hD5xxR-44" value="" style="line;strokeWidth=1;fillColor=none;align=left;verticalAlign=middle;spacingTop=-1;spacingLeft=3;spacingRight=3;rotatable=0;labelPosition=right;points=[];portConstraint=eastwest;strokeColor=inherit;" parent="TpdD24qYPQaRV9hD5xxR-42" vertex="1">
          <mxGeometry y="164" width="220" height="8" as="geometry" />
        </mxCell>
        <mxCell id="TpdD24qYPQaRV9hD5xxR-61" value="-m_count:unsigned" style="text;strokeColor=none;fillColor=none;align=left;verticalAlign=top;spacingLeft=4;spacingRight=4;overflow=hidden;rotatable=0;points=[[0,0.5],[1,0.5]];portConstraint=eastwest;whiteSpace=wrap;html=1;" parent="TpdD24qYPQaRV9hD5xxR-42" vertex="1">
          <mxGeometry y="172" width="220" height="26" as="geometry" />
        </mxCell>
        <mxCell id="TpdD24qYPQaRV9hD5xxR-62" value="-m_state:IState*" style="text;strokeColor=none;fillColor=none;align=left;verticalAlign=top;spacingLeft=4;spacingRight=4;overflow=hidden;rotatable=0;points=[[0,0.5],[1,0.5]];portConstraint=eastwest;whiteSpace=wrap;html=1;" parent="TpdD24qYPQaRV9hD5xxR-42" vertex="1">
          <mxGeometry y="198" width="220" height="26" as="geometry" />
        </mxCell>
        <mxCell id="TpdD24qYPQaRV9hD5xxR-45" value="-m_soldState:SoldState" style="text;strokeColor=none;fillColor=none;align=left;verticalAlign=top;spacingLeft=4;spacingRight=4;overflow=hidden;rotatable=0;points=[[0,0.5],[1,0.5]];portConstraint=eastwest;whiteSpace=wrap;html=1;" parent="TpdD24qYPQaRV9hD5xxR-42" vertex="1">
          <mxGeometry y="224" width="220" height="26" as="geometry" />
        </mxCell>
        <mxCell id="TpdD24qYPQaRV9hD5xxR-48" value="-m_soldOutState:SoldOutState" style="text;strokeColor=none;fillColor=none;align=left;verticalAlign=top;spacingLeft=4;spacingRight=4;overflow=hidden;rotatable=0;points=[[0,0.5],[1,0.5]];portConstraint=eastwest;whiteSpace=wrap;html=1;" parent="TpdD24qYPQaRV9hD5xxR-42" vertex="1">
          <mxGeometry y="250" width="220" height="26" as="geometry" />
        </mxCell>
        <mxCell id="TpdD24qYPQaRV9hD5xxR-49" value="-m_hasQuarterState:HasQuarterState" style="text;strokeColor=none;fillColor=none;align=left;verticalAlign=top;spacingLeft=4;spacingRight=4;overflow=hidden;rotatable=0;points=[[0,0.5],[1,0.5]];portConstraint=eastwest;whiteSpace=wrap;html=1;" parent="TpdD24qYPQaRV9hD5xxR-42" vertex="1">
          <mxGeometry y="276" width="220" height="26" as="geometry" />
        </mxCell>
        <mxCell id="TpdD24qYPQaRV9hD5xxR-50" value="-m_noQuarterState:NoQuarterState" style="text;strokeColor=none;fillColor=none;align=left;verticalAlign=top;spacingLeft=4;spacingRight=4;overflow=hidden;rotatable=0;points=[[0,0.5],[1,0.5]];portConstraint=eastwest;whiteSpace=wrap;html=1;" parent="TpdD24qYPQaRV9hD5xxR-42" vertex="1">
          <mxGeometry y="302" width="220" height="26" as="geometry" />
        </mxCell>
        <mxCell id="TpdD24qYPQaRV9hD5xxR-46" value="private" style="endArrow=block;dashed=1;endFill=0;endSize=12;html=1;rounded=0;" parent="1" source="TpdD24qYPQaRV9hD5xxR-42" target="TpdD24qYPQaRV9hD5xxR-29" edge="1">
          <mxGeometry width="160" relative="1" as="geometry">
            <mxPoint x="159.94" y="50" as="sourcePoint" />
            <mxPoint x="319.94" y="50" as="targetPoint" />
          </mxGeometry>
        </mxCell>
        <mxCell id="TpdD24qYPQaRV9hD5xxR-47" value="" style="endArrow=diamondThin;endFill=1;endSize=24;html=1;rounded=0;" parent="1" source="TpdD24qYPQaRV9hD5xxR-7" target="TpdD24qYPQaRV9hD5xxR-42" edge="1">
          <mxGeometry width="160" relative="1" as="geometry">
            <mxPoint x="179.94" y="100" as="sourcePoint" />
            <mxPoint x="339.94" y="100" as="targetPoint" />
          </mxGeometry>
        </mxCell>
        <mxCell id="TpdD24qYPQaRV9hD5xxR-51" value="" style="endArrow=diamondThin;endFill=1;endSize=24;html=1;rounded=0;" parent="1" source="TpdD24qYPQaRV9hD5xxR-14" target="TpdD24qYPQaRV9hD5xxR-42" edge="1">
          <mxGeometry width="160" relative="1" as="geometry">
            <mxPoint x="179.94" y="100" as="sourcePoint" />
            <mxPoint x="339.94" y="100" as="targetPoint" />
          </mxGeometry>
        </mxCell>
        <mxCell id="TpdD24qYPQaRV9hD5xxR-52" value="" style="endArrow=diamondThin;endFill=1;endSize=24;html=1;rounded=0;" parent="1" source="TpdD24qYPQaRV9hD5xxR-19" target="TpdD24qYPQaRV9hD5xxR-42" edge="1">
          <mxGeometry width="160" relative="1" as="geometry">
            <mxPoint x="179.94" y="100" as="sourcePoint" />
            <mxPoint x="339.94" y="100" as="targetPoint" />
          </mxGeometry>
        </mxCell>
        <mxCell id="TpdD24qYPQaRV9hD5xxR-53" value="" style="endArrow=diamondThin;endFill=1;endSize=24;html=1;rounded=0;" parent="1" source="TpdD24qYPQaRV9hD5xxR-23" target="TpdD24qYPQaRV9hD5xxR-42" edge="1">
          <mxGeometry width="160" relative="1" as="geometry">
            <mxPoint x="179.94" y="100" as="sourcePoint" />
            <mxPoint x="339.94" y="100" as="targetPoint" />
          </mxGeometry>
        </mxCell>
        <mxCell id="TpdD24qYPQaRV9hD5xxR-55" value="" style="endArrow=diamondThin;endFill=0;endSize=24;html=1;rounded=0;edgeStyle=orthogonalEdgeStyle;" parent="1" source="TpdD24qYPQaRV9hD5xxR-1" target="TpdD24qYPQaRV9hD5xxR-42" edge="1">
          <mxGeometry width="160" relative="1" as="geometry">
            <mxPoint x="-230.06" y="30" as="sourcePoint" />
            <mxPoint x="-70.06" y="30" as="targetPoint" />
            <Array as="points">
              <mxPoint x="-0.05999999999999872" y="-515" />
              <mxPoint x="-0.05999999999999872" y="-54" />
            </Array>
          </mxGeometry>
        </mxCell>
        <mxCell id="av5-S5C0yqWMrNUavOaL-1" value="Context" style="swimlane;fontStyle=1;align=center;verticalAlign=top;childLayout=stackLayout;horizontal=1;startSize=26;horizontalStack=0;resizeParent=1;resizeParentMax=0;resizeLast=0;collapsible=1;marginBottom=0;whiteSpace=wrap;html=1;" parent="1" vertex="1">
          <mxGeometry x="-750" y="-1030" width="160" height="52" as="geometry" />
        </mxCell>
        <mxCell id="av5-S5C0yqWMrNUavOaL-5" value="State" style="swimlane;fontStyle=3;align=center;verticalAlign=top;childLayout=stackLayout;horizontal=1;startSize=26;horizontalStack=0;resizeParent=1;resizeParentMax=0;resizeLast=0;collapsible=1;marginBottom=0;whiteSpace=wrap;html=1;" parent="1" vertex="1">
          <mxGeometry x="-430" y="-1020" width="160" height="52" as="geometry" />
        </mxCell>
        <mxCell id="av5-S5C0yqWMrNUavOaL-6" value="ConcreteState" style="swimlane;fontStyle=1;align=center;verticalAlign=top;childLayout=stackLayout;horizontal=1;startSize=26;horizontalStack=0;resizeParent=1;resizeParentMax=0;resizeLast=0;collapsible=1;marginBottom=0;whiteSpace=wrap;html=1;" parent="1" vertex="1">
          <mxGeometry x="-490" y="-790" width="160" height="78" as="geometry" />
        </mxCell>
        <mxCell id="av5-S5C0yqWMrNUavOaL-16" value="-m_context:IContext" style="text;strokeColor=none;fillColor=none;align=left;verticalAlign=top;spacingLeft=4;spacingRight=4;overflow=hidden;rotatable=0;points=[[0,0.5],[1,0.5]];portConstraint=eastwest;whiteSpace=wrap;html=1;" parent="av5-S5C0yqWMrNUavOaL-6" vertex="1">
          <mxGeometry y="26" width="160" height="26" as="geometry" />
        </mxCell>
        <mxCell id="av5-S5C0yqWMrNUavOaL-17" value="-m_someData" style="text;strokeColor=#82b366;fillColor=#d5e8d4;align=left;verticalAlign=top;spacingLeft=4;spacingRight=4;overflow=hidden;rotatable=0;points=[[0,0.5],[1,0.5]];portConstraint=eastwest;whiteSpace=wrap;html=1;" parent="av5-S5C0yqWMrNUavOaL-6" vertex="1">
          <mxGeometry y="52" width="160" height="26" as="geometry" />
        </mxCell>
        <mxCell id="av5-S5C0yqWMrNUavOaL-7" value="" style="endArrow=diamondThin;endFill=1;endSize=24;html=1;rounded=0;" parent="1" source="av5-S5C0yqWMrNUavOaL-6" target="av5-S5C0yqWMrNUavOaL-1" edge="1">
          <mxGeometry width="160" relative="1" as="geometry">
            <mxPoint x="-850" y="-740" as="sourcePoint" />
            <mxPoint x="-690" y="-740" as="targetPoint" />
          </mxGeometry>
        </mxCell>
        <mxCell id="av5-S5C0yqWMrNUavOaL-8" value="" style="endArrow=block;dashed=1;endFill=0;endSize=12;html=1;rounded=0;" parent="1" source="av5-S5C0yqWMrNUavOaL-6" target="av5-S5C0yqWMrNUavOaL-5" edge="1">
          <mxGeometry width="160" relative="1" as="geometry">
            <mxPoint x="-460" y="-880" as="sourcePoint" />
            <mxPoint x="-300" y="-880" as="targetPoint" />
          </mxGeometry>
        </mxCell>
        <mxCell id="av5-S5C0yqWMrNUavOaL-9" value="" style="endArrow=diamondThin;endFill=0;endSize=24;html=1;rounded=0;" parent="1" source="av5-S5C0yqWMrNUavOaL-5" target="av5-S5C0yqWMrNUavOaL-1" edge="1">
          <mxGeometry width="160" relative="1" as="geometry">
            <mxPoint x="-650" y="-700" as="sourcePoint" />
            <mxPoint x="-490" y="-700" as="targetPoint" />
          </mxGeometry>
        </mxCell>
        <mxCell id="av5-S5C0yqWMrNUavOaL-10" value="" style="endArrow=diamondThin;endFill=0;endSize=24;html=1;rounded=0;" parent="1" source="av5-S5C0yqWMrNUavOaL-11" target="av5-S5C0yqWMrNUavOaL-6" edge="1">
          <mxGeometry width="160" relative="1" as="geometry">
            <mxPoint x="-720" y="-710" as="sourcePoint" />
            <mxPoint x="-560" y="-710" as="targetPoint" />
          </mxGeometry>
        </mxCell>
        <mxCell id="av5-S5C0yqWMrNUavOaL-11" value="IContext" style="swimlane;fontStyle=1;align=center;verticalAlign=top;childLayout=stackLayout;horizontal=1;startSize=26;horizontalStack=0;resizeParent=1;resizeParentMax=0;resizeLast=0;collapsible=1;marginBottom=0;whiteSpace=wrap;html=1;" parent="1" vertex="1">
          <mxGeometry x="-850" y="-890" width="160" height="52" as="geometry" />
        </mxCell>
        <mxCell id="av5-S5C0yqWMrNUavOaL-15" value="" style="endArrow=block;dashed=1;endFill=0;endSize=12;html=1;rounded=0;" parent="1" source="av5-S5C0yqWMrNUavOaL-1" target="av5-S5C0yqWMrNUavOaL-11" edge="1">
          <mxGeometry width="160" relative="1" as="geometry">
            <mxPoint x="-890" y="-690" as="sourcePoint" />
            <mxPoint x="-730" y="-690" as="targetPoint" />
          </mxGeometry>
        </mxCell>
        <mxCell id="av5-S5C0yqWMrNUavOaL-18" value="private" style="edgeLabel;html=1;align=center;verticalAlign=middle;resizable=0;points=[];" parent="av5-S5C0yqWMrNUavOaL-15" vertex="1" connectable="0">
          <mxGeometry x="0.0983" y="2" relative="1" as="geometry">
            <mxPoint as="offset" />
          </mxGeometry>
        </mxCell>
        <mxCell id="RrVwWXCyHVwnufMky5Bb-2" style="edgeStyle=orthogonalEdgeStyle;rounded=0;orthogonalLoop=1;jettySize=auto;html=1;" parent="1" source="RrVwWXCyHVwnufMky5Bb-3" target="RrVwWXCyHVwnufMky5Bb-1" edge="1">
          <mxGeometry relative="1" as="geometry">
            <Array as="points">
              <mxPoint x="-920" y="-561" />
              <mxPoint x="-920" y="-520" />
            </Array>
          </mxGeometry>
        </mxCell>
        <mxCell id="av5-S5C0yqWMrNUavOaL-19" value="Context" style="swimlane;fontStyle=1;align=center;verticalAlign=top;childLayout=stackLayout;horizontal=1;startSize=26;horizontalStack=0;resizeParent=1;resizeParentMax=0;resizeLast=0;collapsible=1;marginBottom=0;whiteSpace=wrap;html=1;fillColor=#d5e8d4;strokeColor=#82b366;" parent="1" vertex="1">
          <mxGeometry x="-890" y="-600" width="160" height="86" as="geometry" />
        </mxCell>
        <mxCell id="RrVwWXCyHVwnufMky5Bb-3" value="+DoSomething()" style="text;strokeColor=none;fillColor=none;align=left;verticalAlign=top;spacingLeft=4;spacingRight=4;overflow=hidden;rotatable=0;points=[[0,0.5],[1,0.5]];portConstraint=eastwest;whiteSpace=wrap;html=1;" parent="av5-S5C0yqWMrNUavOaL-19" vertex="1">
          <mxGeometry y="26" width="160" height="26" as="geometry" />
        </mxCell>
        <mxCell id="_p5M--wS23h-RvkPVLqR-40" value="" style="line;strokeWidth=1;fillColor=none;align=left;verticalAlign=middle;spacingTop=-1;spacingLeft=3;spacingRight=3;rotatable=0;labelPosition=right;points=[];portConstraint=eastwest;strokeColor=inherit;" vertex="1" parent="av5-S5C0yqWMrNUavOaL-19">
          <mxGeometry y="52" width="160" height="8" as="geometry" />
        </mxCell>
        <mxCell id="_p5M--wS23h-RvkPVLqR-39" value="-m_impl:ContextImpl" style="text;strokeColor=none;fillColor=none;align=left;verticalAlign=top;spacingLeft=4;spacingRight=4;overflow=hidden;rotatable=0;points=[[0,0.5],[1,0.5]];portConstraint=eastwest;whiteSpace=wrap;html=1;" vertex="1" parent="av5-S5C0yqWMrNUavOaL-19">
          <mxGeometry y="60" width="160" height="26" as="geometry" />
        </mxCell>
        <mxCell id="av5-S5C0yqWMrNUavOaL-20" value="&lt;div&gt;&lt;span style=&quot;font-style: normal; font-weight: normal;&quot;&gt;&amp;lt;&amp;lt;interface&amp;gt;&amp;gt;&lt;/span&gt;&lt;/div&gt;IState" style="swimlane;fontStyle=3;align=center;verticalAlign=top;childLayout=stackLayout;horizontal=1;startSize=40;horizontalStack=0;resizeParent=1;resizeParentMax=0;resizeLast=0;collapsible=1;marginBottom=0;whiteSpace=wrap;html=1;fillColor=#f8cecc;strokeColor=#b85450;" parent="1" vertex="1">
          <mxGeometry x="-560" y="-560" width="160" height="66" as="geometry" />
        </mxCell>
        <mxCell id="RrVwWXCyHVwnufMky5Bb-7" value="+DoSomething()" style="text;strokeColor=none;fillColor=none;align=left;verticalAlign=top;spacingLeft=4;spacingRight=4;overflow=hidden;rotatable=0;points=[[0,0.5],[1,0.5]];portConstraint=eastwest;whiteSpace=wrap;html=1;fontStyle=2" parent="av5-S5C0yqWMrNUavOaL-20" vertex="1">
          <mxGeometry y="40" width="160" height="26" as="geometry" />
        </mxCell>
        <mxCell id="av5-S5C0yqWMrNUavOaL-21" value="ConcreteStateA" style="swimlane;fontStyle=1;align=center;verticalAlign=top;childLayout=stackLayout;horizontal=1;startSize=26;horizontalStack=0;resizeParent=1;resizeParentMax=0;resizeLast=0;collapsible=1;marginBottom=0;whiteSpace=wrap;html=1;fillColor=#f8cecc;strokeColor=#b85450;" parent="1" vertex="1">
          <mxGeometry x="-620" y="-320" width="210" height="78" as="geometry" />
        </mxCell>
        <mxCell id="RrVwWXCyHVwnufMky5Bb-8" value="&lt;span style=&quot;font-style: normal;&quot;&gt;+DoSomething()&lt;/span&gt;" style="text;strokeColor=none;fillColor=none;align=left;verticalAlign=top;spacingLeft=4;spacingRight=4;overflow=hidden;rotatable=0;points=[[0,0.5],[1,0.5]];portConstraint=eastwest;whiteSpace=wrap;html=1;fontStyle=2" parent="av5-S5C0yqWMrNUavOaL-21" vertex="1">
          <mxGeometry y="26" width="210" height="26" as="geometry" />
        </mxCell>
        <mxCell id="av5-S5C0yqWMrNUavOaL-22" value="-m_context:ContextImpl" style="text;strokeColor=none;fillColor=none;align=left;verticalAlign=top;spacingLeft=4;spacingRight=4;overflow=hidden;rotatable=0;points=[[0,0.5],[1,0.5]];portConstraint=eastwest;whiteSpace=wrap;html=1;" parent="av5-S5C0yqWMrNUavOaL-21" vertex="1">
          <mxGeometry y="52" width="210" height="26" as="geometry" />
        </mxCell>
        <mxCell id="av5-S5C0yqWMrNUavOaL-24" value="" style="endArrow=diamondThin;endFill=1;endSize=24;html=1;rounded=0;" parent="1" source="av5-S5C0yqWMrNUavOaL-21" target="av5-S5C0yqWMrNUavOaL-31" edge="1">
          <mxGeometry width="160" relative="1" as="geometry">
            <mxPoint x="-980" y="-270" as="sourcePoint" />
            <mxPoint x="-820" y="-270" as="targetPoint" />
          </mxGeometry>
        </mxCell>
        <mxCell id="av5-S5C0yqWMrNUavOaL-25" value="" style="endArrow=block;dashed=1;endFill=0;endSize=12;html=1;rounded=0;" parent="1" source="av5-S5C0yqWMrNUavOaL-21" target="av5-S5C0yqWMrNUavOaL-20" edge="1">
          <mxGeometry width="160" relative="1" as="geometry">
            <mxPoint x="-590" y="-410" as="sourcePoint" />
            <mxPoint x="-430" y="-410" as="targetPoint" />
          </mxGeometry>
        </mxCell>
        <mxCell id="av5-S5C0yqWMrNUavOaL-26" value="" style="endArrow=diamondThin;endFill=0;endSize=24;html=1;rounded=0;" parent="1" source="av5-S5C0yqWMrNUavOaL-20" target="av5-S5C0yqWMrNUavOaL-31" edge="1">
          <mxGeometry width="160" relative="1" as="geometry">
            <mxPoint x="-780" y="-230" as="sourcePoint" />
            <mxPoint x="-620" y="-230" as="targetPoint" />
          </mxGeometry>
        </mxCell>
        <mxCell id="av5-S5C0yqWMrNUavOaL-27" value="" style="endArrow=diamondThin;endFill=0;endSize=24;html=1;rounded=0;edgeStyle=orthogonalEdgeStyle;" parent="1" source="av5-S5C0yqWMrNUavOaL-31" target="av5-S5C0yqWMrNUavOaL-21" edge="1">
          <mxGeometry width="160" relative="1" as="geometry">
            <mxPoint x="-810" y="-400" as="sourcePoint" />
            <mxPoint x="-690" y="-240" as="targetPoint" />
            <Array as="points">
              <mxPoint x="-780" y="-281" />
            </Array>
          </mxGeometry>
        </mxCell>
        <mxCell id="_p5M--wS23h-RvkPVLqR-2" style="edgeStyle=orthogonalEdgeStyle;rounded=0;orthogonalLoop=1;jettySize=auto;html=1;" edge="1" parent="1" source="av5-S5C0yqWMrNUavOaL-31" target="_p5M--wS23h-RvkPVLqR-1">
          <mxGeometry relative="1" as="geometry" />
        </mxCell>
        <mxCell id="av5-S5C0yqWMrNUavOaL-31" value="ContextImpl" style="swimlane;fontStyle=1;align=center;verticalAlign=top;childLayout=stackLayout;horizontal=1;startSize=26;horizontalStack=0;resizeParent=1;resizeParentMax=0;resizeLast=0;collapsible=1;marginBottom=0;whiteSpace=wrap;html=1;fillColor=#f8cecc;strokeColor=#b85450;" parent="1" vertex="1">
          <mxGeometry x="-890" y="-460" width="160" height="130" as="geometry" />
        </mxCell>
        <mxCell id="RrVwWXCyHVwnufMky5Bb-4" value="+DoSomething()" style="text;strokeColor=none;fillColor=none;align=left;verticalAlign=top;spacingLeft=4;spacingRight=4;overflow=hidden;rotatable=0;points=[[0,0.5],[1,0.5]];portConstraint=eastwest;whiteSpace=wrap;html=1;" parent="av5-S5C0yqWMrNUavOaL-31" vertex="1">
          <mxGeometry y="26" width="160" height="26" as="geometry" />
        </mxCell>
        <mxCell id="RrVwWXCyHVwnufMky5Bb-15" value="+GotoStateA()" style="text;strokeColor=none;fillColor=none;align=left;verticalAlign=top;spacingLeft=4;spacingRight=4;overflow=hidden;rotatable=0;points=[[0,0.5],[1,0.5]];portConstraint=eastwest;whiteSpace=wrap;html=1;" parent="av5-S5C0yqWMrNUavOaL-31" vertex="1">
          <mxGeometry y="52" width="160" height="26" as="geometry" />
        </mxCell>
        <mxCell id="RrVwWXCyHVwnufMky5Bb-16" value="+GotoStateB()" style="text;strokeColor=none;fillColor=none;align=left;verticalAlign=top;spacingLeft=4;spacingRight=4;overflow=hidden;rotatable=0;points=[[0,0.5],[1,0.5]];portConstraint=eastwest;whiteSpace=wrap;html=1;" parent="av5-S5C0yqWMrNUavOaL-31" vertex="1">
          <mxGeometry y="78" width="160" height="26" as="geometry" />
        </mxCell>
        <mxCell id="_p5M--wS23h-RvkPVLqR-38" value="+DoSomethingInternal()" style="text;strokeColor=none;fillColor=none;align=left;verticalAlign=top;spacingLeft=4;spacingRight=4;overflow=hidden;rotatable=0;points=[[0,0.5],[1,0.5]];portConstraint=eastwest;whiteSpace=wrap;html=1;" vertex="1" parent="av5-S5C0yqWMrNUavOaL-31">
          <mxGeometry y="104" width="160" height="26" as="geometry" />
        </mxCell>
        <mxCell id="av5-S5C0yqWMrNUavOaL-32" value="Client" style="swimlane;fontStyle=1;align=center;verticalAlign=top;childLayout=stackLayout;horizontal=1;startSize=26;horizontalStack=0;resizeParent=1;resizeParentMax=0;resizeLast=0;collapsible=1;marginBottom=0;whiteSpace=wrap;html=1;" parent="1" vertex="1">
          <mxGeometry x="-1125" y="-640" width="160" height="52" as="geometry" />
        </mxCell>
        <mxCell id="av5-S5C0yqWMrNUavOaL-33" value="Use" style="endArrow=open;endSize=12;dashed=1;html=1;rounded=0;" parent="1" source="av5-S5C0yqWMrNUavOaL-32" target="av5-S5C0yqWMrNUavOaL-19" edge="1">
          <mxGeometry width="160" relative="1" as="geometry">
            <mxPoint x="-800" y="-670" as="sourcePoint" />
            <mxPoint x="-640" y="-670" as="targetPoint" />
          </mxGeometry>
        </mxCell>
        <mxCell id="av5-S5C0yqWMrNUavOaL-34" value="" style="endArrow=diamondThin;endFill=1;endSize=24;html=1;rounded=0;" parent="1" source="av5-S5C0yqWMrNUavOaL-31" target="av5-S5C0yqWMrNUavOaL-19" edge="1">
          <mxGeometry width="160" relative="1" as="geometry">
            <mxPoint x="-980" y="-270" as="sourcePoint" />
            <mxPoint x="-820" y="-270" as="targetPoint" />
          </mxGeometry>
        </mxCell>
        <mxCell id="RrVwWXCyHVwnufMky5Bb-1" value="m_impl.DoSomething()" style="shape=note;whiteSpace=wrap;html=1;backgroundOutline=1;darkOpacity=0.05;fillColor=#ffff88;strokeColor=#36393d;fontFamily=Consolas;size=15;align=left;spacingLeft=2;" parent="1" vertex="1">
          <mxGeometry x="-1125" y="-549.9999999999999" width="170" height="60" as="geometry" />
        </mxCell>
        <mxCell id="RrVwWXCyHVwnufMky5Bb-9" value="ConcreteStateB" style="swimlane;fontStyle=1;align=center;verticalAlign=top;childLayout=stackLayout;horizontal=1;startSize=26;horizontalStack=0;resizeParent=1;resizeParentMax=0;resizeLast=0;collapsible=1;marginBottom=0;whiteSpace=wrap;html=1;fillColor=#f8cecc;strokeColor=#b85450;" parent="1" vertex="1">
          <mxGeometry x="-350" y="-320" width="210" height="78" as="geometry" />
        </mxCell>
        <mxCell id="RrVwWXCyHVwnufMky5Bb-10" value="&lt;span style=&quot;font-style: normal;&quot;&gt;+DoSomething()&lt;/span&gt;" style="text;strokeColor=none;fillColor=none;align=left;verticalAlign=top;spacingLeft=4;spacingRight=4;overflow=hidden;rotatable=0;points=[[0,0.5],[1,0.5]];portConstraint=eastwest;whiteSpace=wrap;html=1;fontStyle=2" parent="RrVwWXCyHVwnufMky5Bb-9" vertex="1">
          <mxGeometry y="26" width="210" height="26" as="geometry" />
        </mxCell>
        <mxCell id="RrVwWXCyHVwnufMky5Bb-11" value="-m_context:ContextImpl" style="text;strokeColor=none;fillColor=none;align=left;verticalAlign=top;spacingLeft=4;spacingRight=4;overflow=hidden;rotatable=0;points=[[0,0.5],[1,0.5]];portConstraint=eastwest;whiteSpace=wrap;html=1;" parent="RrVwWXCyHVwnufMky5Bb-9" vertex="1">
          <mxGeometry y="52" width="210" height="26" as="geometry" />
        </mxCell>
        <mxCell id="RrVwWXCyHVwnufMky5Bb-13" value="" style="endArrow=block;dashed=1;endFill=0;endSize=12;html=1;rounded=0;" parent="1" source="RrVwWXCyHVwnufMky5Bb-9" target="av5-S5C0yqWMrNUavOaL-20" edge="1">
          <mxGeometry width="160" relative="1" as="geometry">
            <mxPoint x="-590" y="-410" as="sourcePoint" />
            <mxPoint x="-430" y="-410" as="targetPoint" />
          </mxGeometry>
        </mxCell>
        <mxCell id="RrVwWXCyHVwnufMky5Bb-14" value="" style="endArrow=diamondThin;endFill=0;endSize=24;html=1;rounded=0;edgeStyle=orthogonalEdgeStyle;" parent="1" source="av5-S5C0yqWMrNUavOaL-31" target="RrVwWXCyHVwnufMky5Bb-9" edge="1">
          <mxGeometry width="160" relative="1" as="geometry">
            <mxPoint x="-810" y="-400" as="sourcePoint" />
            <mxPoint x="-690" y="-240" as="targetPoint" />
            <Array as="points">
              <mxPoint x="-810" y="-200" />
              <mxPoint x="-245" y="-200" />
            </Array>
          </mxGeometry>
        </mxCell>
        <mxCell id="tmoAYluoaS6Xsp-rEKED-1" value="GumballMachine" style="swimlane;fontStyle=1;align=center;verticalAlign=top;childLayout=stackLayout;horizontal=1;startSize=26;horizontalStack=0;resizeParent=1;resizeParentMax=0;resizeLast=0;collapsible=1;marginBottom=0;whiteSpace=wrap;html=1;" parent="1" vertex="1">
          <mxGeometry x="-1000" y="-1560" width="160" height="242" as="geometry" />
        </mxCell>
        <mxCell id="tmoAYluoaS6Xsp-rEKED-2" value="+ InsertQuarter()" style="text;strokeColor=none;fillColor=none;align=left;verticalAlign=top;spacingLeft=4;spacingRight=4;overflow=hidden;rotatable=0;points=[[0,0.5],[1,0.5]];portConstraint=eastwest;whiteSpace=wrap;html=1;" parent="tmoAYluoaS6Xsp-rEKED-1" vertex="1">
          <mxGeometry y="26" width="160" height="26" as="geometry" />
        </mxCell>
        <mxCell id="tmoAYluoaS6Xsp-rEKED-5" value="+ EjectQuarter()" style="text;strokeColor=none;fillColor=none;align=left;verticalAlign=top;spacingLeft=4;spacingRight=4;overflow=hidden;rotatable=0;points=[[0,0.5],[1,0.5]];portConstraint=eastwest;whiteSpace=wrap;html=1;" parent="tmoAYluoaS6Xsp-rEKED-1" vertex="1">
          <mxGeometry y="52" width="160" height="26" as="geometry" />
        </mxCell>
        <mxCell id="tmoAYluoaS6Xsp-rEKED-6" value="+ TurnCrank()" style="text;strokeColor=none;fillColor=none;align=left;verticalAlign=top;spacingLeft=4;spacingRight=4;overflow=hidden;rotatable=0;points=[[0,0.5],[1,0.5]];portConstraint=eastwest;whiteSpace=wrap;html=1;" parent="tmoAYluoaS6Xsp-rEKED-1" vertex="1">
          <mxGeometry y="78" width="160" height="26" as="geometry" />
        </mxCell>
        <mxCell id="tmoAYluoaS6Xsp-rEKED-7" value="+ Refull()" style="text;strokeColor=none;fillColor=none;align=left;verticalAlign=top;spacingLeft=4;spacingRight=4;overflow=hidden;rotatable=0;points=[[0,0.5],[1,0.5]];portConstraint=eastwest;whiteSpace=wrap;html=1;" parent="tmoAYluoaS6Xsp-rEKED-1" vertex="1">
          <mxGeometry y="104" width="160" height="26" as="geometry" />
        </mxCell>
        <mxCell id="tmoAYluoaS6Xsp-rEKED-8" value="+ ToString():string" style="text;strokeColor=none;fillColor=none;align=left;verticalAlign=top;spacingLeft=4;spacingRight=4;overflow=hidden;rotatable=0;points=[[0,0.5],[1,0.5]];portConstraint=eastwest;whiteSpace=wrap;html=1;" parent="tmoAYluoaS6Xsp-rEKED-1" vertex="1">
          <mxGeometry y="130" width="160" height="26" as="geometry" />
        </mxCell>
        <mxCell id="tmoAYluoaS6Xsp-rEKED-3" value="" style="line;strokeWidth=1;fillColor=none;align=left;verticalAlign=middle;spacingTop=-1;spacingLeft=3;spacingRight=3;rotatable=0;labelPosition=right;points=[];portConstraint=eastwest;strokeColor=inherit;" parent="tmoAYluoaS6Xsp-rEKED-1" vertex="1">
          <mxGeometry y="156" width="160" height="8" as="geometry" />
        </mxCell>
        <mxCell id="tmoAYluoaS6Xsp-rEKED-4" value="- Dispense()" style="text;strokeColor=none;fillColor=none;align=left;verticalAlign=top;spacingLeft=4;spacingRight=4;overflow=hidden;rotatable=0;points=[[0,0.5],[1,0.5]];portConstraint=eastwest;whiteSpace=wrap;html=1;" parent="tmoAYluoaS6Xsp-rEKED-1" vertex="1">
          <mxGeometry y="164" width="160" height="26" as="geometry" />
        </mxCell>
        <mxCell id="tmoAYluoaS6Xsp-rEKED-9" value="- m_count:uint" style="text;strokeColor=none;fillColor=none;align=left;verticalAlign=top;spacingLeft=4;spacingRight=4;overflow=hidden;rotatable=0;points=[[0,0.5],[1,0.5]];portConstraint=eastwest;whiteSpace=wrap;html=1;" parent="tmoAYluoaS6Xsp-rEKED-1" vertex="1">
          <mxGeometry y="190" width="160" height="26" as="geometry" />
        </mxCell>
        <mxCell id="tmoAYluoaS6Xsp-rEKED-10" value="- m_state:State" style="text;strokeColor=none;fillColor=none;align=left;verticalAlign=top;spacingLeft=4;spacingRight=4;overflow=hidden;rotatable=0;points=[[0,0.5],[1,0.5]];portConstraint=eastwest;whiteSpace=wrap;html=1;" parent="tmoAYluoaS6Xsp-rEKED-1" vertex="1">
          <mxGeometry y="216" width="160" height="26" as="geometry" />
        </mxCell>
        <mxCell id="tmoAYluoaS6Xsp-rEKED-11" value="&lt;div&gt;&lt;i style=&quot;font-weight: normal;&quot;&gt;&amp;lt;&amp;lt;Enumeration&amp;gt;&amp;gt;&lt;/i&gt;&lt;/div&gt;State" style="swimlane;fontStyle=1;align=center;verticalAlign=top;childLayout=stackLayout;horizontal=1;startSize=40;horizontalStack=0;resizeParent=1;resizeParentMax=0;resizeLast=0;collapsible=1;marginBottom=0;whiteSpace=wrap;html=1;" parent="1" vertex="1">
          <mxGeometry x="-760" y="-1511" width="160" height="144" as="geometry" />
        </mxCell>
        <mxCell id="tmoAYluoaS6Xsp-rEKED-12" value="NoQuarter" style="text;strokeColor=none;fillColor=none;align=left;verticalAlign=top;spacingLeft=4;spacingRight=4;overflow=hidden;rotatable=0;points=[[0,0.5],[1,0.5]];portConstraint=eastwest;whiteSpace=wrap;html=1;" parent="tmoAYluoaS6Xsp-rEKED-11" vertex="1">
          <mxGeometry y="40" width="160" height="26" as="geometry" />
        </mxCell>
        <mxCell id="tmoAYluoaS6Xsp-rEKED-15" value="HasQuarter" style="text;strokeColor=none;fillColor=none;align=left;verticalAlign=top;spacingLeft=4;spacingRight=4;overflow=hidden;rotatable=0;points=[[0,0.5],[1,0.5]];portConstraint=eastwest;whiteSpace=wrap;html=1;" parent="tmoAYluoaS6Xsp-rEKED-11" vertex="1">
          <mxGeometry y="66" width="160" height="26" as="geometry" />
        </mxCell>
        <mxCell id="tmoAYluoaS6Xsp-rEKED-16" value="Sold" style="text;strokeColor=none;fillColor=none;align=left;verticalAlign=top;spacingLeft=4;spacingRight=4;overflow=hidden;rotatable=0;points=[[0,0.5],[1,0.5]];portConstraint=eastwest;whiteSpace=wrap;html=1;" parent="tmoAYluoaS6Xsp-rEKED-11" vertex="1">
          <mxGeometry y="92" width="160" height="26" as="geometry" />
        </mxCell>
        <mxCell id="tmoAYluoaS6Xsp-rEKED-17" value="SoldOut" style="text;strokeColor=none;fillColor=none;align=left;verticalAlign=top;spacingLeft=4;spacingRight=4;overflow=hidden;rotatable=0;points=[[0,0.5],[1,0.5]];portConstraint=eastwest;whiteSpace=wrap;html=1;" parent="tmoAYluoaS6Xsp-rEKED-11" vertex="1">
          <mxGeometry y="118" width="160" height="26" as="geometry" />
        </mxCell>
        <mxCell id="tmoAYluoaS6Xsp-rEKED-18" value="" style="endArrow=diamondThin;endFill=1;endSize=24;html=1;rounded=0;" parent="1" source="tmoAYluoaS6Xsp-rEKED-11" target="tmoAYluoaS6Xsp-rEKED-1" edge="1">
          <mxGeometry width="160" relative="1" as="geometry">
            <mxPoint x="-810" y="-1270" as="sourcePoint" />
            <mxPoint x="-650" y="-1270" as="targetPoint" />
          </mxGeometry>
        </mxCell>
        <mxCell id="3ypc7PpezAvxCuO7cp76-1" value="Context" style="swimlane;fontStyle=1;align=center;verticalAlign=top;childLayout=stackLayout;horizontal=1;startSize=26;horizontalStack=0;resizeParent=1;resizeParentMax=0;resizeLast=0;collapsible=1;marginBottom=0;whiteSpace=wrap;html=1;" parent="1" vertex="1">
          <mxGeometry x="-640" y="520" width="140" height="138" as="geometry" />
        </mxCell>
        <mxCell id="3ypc7PpezAvxCuO7cp76-2" value="+DoThis()" style="text;strokeColor=none;fillColor=none;align=left;verticalAlign=top;spacingLeft=4;spacingRight=4;overflow=hidden;rotatable=0;points=[[0,0.5],[1,0.5]];portConstraint=eastwest;whiteSpace=wrap;html=1;" parent="3ypc7PpezAvxCuO7cp76-1" vertex="1">
          <mxGeometry y="26" width="140" height="26" as="geometry" />
        </mxCell>
        <mxCell id="3ypc7PpezAvxCuO7cp76-17" value="+DoThat()" style="text;strokeColor=none;fillColor=none;align=left;verticalAlign=top;spacingLeft=4;spacingRight=4;overflow=hidden;rotatable=0;points=[[0,0.5],[1,0.5]];portConstraint=eastwest;whiteSpace=wrap;html=1;" parent="3ypc7PpezAvxCuO7cp76-1" vertex="1">
          <mxGeometry y="52" width="140" height="26" as="geometry" />
        </mxCell>
        <mxCell id="3ypc7PpezAvxCuO7cp76-27" value="+SetState(state:State)" style="text;strokeColor=none;fillColor=none;align=left;verticalAlign=top;spacingLeft=4;spacingRight=4;overflow=hidden;rotatable=0;points=[[0,0.5],[1,0.5]];portConstraint=eastwest;whiteSpace=wrap;html=1;" parent="3ypc7PpezAvxCuO7cp76-1" vertex="1">
          <mxGeometry y="78" width="140" height="26" as="geometry" />
        </mxCell>
        <mxCell id="3ypc7PpezAvxCuO7cp76-3" value="" style="line;strokeWidth=1;fillColor=none;align=left;verticalAlign=middle;spacingTop=-1;spacingLeft=3;spacingRight=3;rotatable=0;labelPosition=right;points=[];portConstraint=eastwest;strokeColor=inherit;" parent="3ypc7PpezAvxCuO7cp76-1" vertex="1">
          <mxGeometry y="104" width="140" height="8" as="geometry" />
        </mxCell>
        <mxCell id="3ypc7PpezAvxCuO7cp76-4" value="-m_state:State" style="text;strokeColor=none;fillColor=none;align=left;verticalAlign=top;spacingLeft=4;spacingRight=4;overflow=hidden;rotatable=0;points=[[0,0.5],[1,0.5]];portConstraint=eastwest;whiteSpace=wrap;html=1;" parent="3ypc7PpezAvxCuO7cp76-1" vertex="1">
          <mxGeometry y="112" width="140" height="26" as="geometry" />
        </mxCell>
        <mxCell id="3ypc7PpezAvxCuO7cp76-5" value="&lt;i&gt;&lt;span style=&quot;font-weight: normal;&quot;&gt;&amp;lt;&amp;lt;interface&amp;gt;&amp;gt;&lt;br&gt;&lt;/span&gt;State&lt;/i&gt;" style="swimlane;fontStyle=1;align=center;verticalAlign=top;childLayout=stackLayout;horizontal=1;startSize=40;horizontalStack=0;resizeParent=1;resizeParentMax=0;resizeLast=0;collapsible=1;marginBottom=0;whiteSpace=wrap;html=1;" parent="1" vertex="1">
          <mxGeometry x="-380" y="540" width="120" height="92" as="geometry" />
        </mxCell>
        <mxCell id="3ypc7PpezAvxCuO7cp76-6" value="+DoThis()" style="text;strokeColor=none;fillColor=none;align=left;verticalAlign=top;spacingLeft=4;spacingRight=4;overflow=hidden;rotatable=0;points=[[0,0.5],[1,0.5]];portConstraint=eastwest;whiteSpace=wrap;html=1;fontStyle=2" parent="3ypc7PpezAvxCuO7cp76-5" vertex="1">
          <mxGeometry y="40" width="120" height="26" as="geometry" />
        </mxCell>
        <mxCell id="3ypc7PpezAvxCuO7cp76-16" value="+DoThat()" style="text;strokeColor=none;fillColor=none;align=left;verticalAlign=top;spacingLeft=4;spacingRight=4;overflow=hidden;rotatable=0;points=[[0,0.5],[1,0.5]];portConstraint=eastwest;whiteSpace=wrap;html=1;fontStyle=2" parent="3ypc7PpezAvxCuO7cp76-5" vertex="1">
          <mxGeometry y="66" width="120" height="26" as="geometry" />
        </mxCell>
        <mxCell id="3ypc7PpezAvxCuO7cp76-8" value="ConcreteStateA" style="swimlane;fontStyle=1;align=center;verticalAlign=top;childLayout=stackLayout;horizontal=1;startSize=26;horizontalStack=0;resizeParent=1;resizeParentMax=0;resizeLast=0;collapsible=1;marginBottom=0;whiteSpace=wrap;html=1;" parent="1" vertex="1">
          <mxGeometry x="-455" y="680" width="125" height="112" as="geometry" />
        </mxCell>
        <mxCell id="3ypc7PpezAvxCuO7cp76-18" value="+DoThis()" style="text;strokeColor=none;fillColor=none;align=left;verticalAlign=top;spacingLeft=4;spacingRight=4;overflow=hidden;rotatable=0;points=[[0,0.5],[1,0.5]];portConstraint=eastwest;whiteSpace=wrap;html=1;fontStyle=0" parent="3ypc7PpezAvxCuO7cp76-8" vertex="1">
          <mxGeometry y="26" width="125" height="26" as="geometry" />
        </mxCell>
        <mxCell id="3ypc7PpezAvxCuO7cp76-19" value="+DoThat()" style="text;strokeColor=none;fillColor=none;align=left;verticalAlign=top;spacingLeft=4;spacingRight=4;overflow=hidden;rotatable=0;points=[[0,0.5],[1,0.5]];portConstraint=eastwest;whiteSpace=wrap;html=1;fontStyle=0" parent="3ypc7PpezAvxCuO7cp76-8" vertex="1">
          <mxGeometry y="52" width="125" height="26" as="geometry" />
        </mxCell>
        <mxCell id="3ypc7PpezAvxCuO7cp76-24" value="" style="line;strokeWidth=1;fillColor=none;align=left;verticalAlign=middle;spacingTop=-1;spacingLeft=3;spacingRight=3;rotatable=0;labelPosition=right;points=[];portConstraint=eastwest;strokeColor=inherit;" parent="3ypc7PpezAvxCuO7cp76-8" vertex="1">
          <mxGeometry y="78" width="125" height="8" as="geometry" />
        </mxCell>
        <mxCell id="3ypc7PpezAvxCuO7cp76-23" value="-m_context:State" style="text;strokeColor=none;fillColor=none;align=left;verticalAlign=top;spacingLeft=4;spacingRight=4;overflow=hidden;rotatable=0;points=[[0,0.5],[1,0.5]];portConstraint=eastwest;whiteSpace=wrap;html=1;" parent="3ypc7PpezAvxCuO7cp76-8" vertex="1">
          <mxGeometry y="86" width="125" height="26" as="geometry" />
        </mxCell>
        <mxCell id="3ypc7PpezAvxCuO7cp76-10" value="ConcreteStateB" style="swimlane;fontStyle=1;align=center;verticalAlign=top;childLayout=stackLayout;horizontal=1;startSize=26;horizontalStack=0;resizeParent=1;resizeParentMax=0;resizeLast=0;collapsible=1;marginBottom=0;whiteSpace=wrap;html=1;" parent="1" vertex="1">
          <mxGeometry x="-310" y="680" width="130" height="112" as="geometry" />
        </mxCell>
        <mxCell id="3ypc7PpezAvxCuO7cp76-20" value="+DoThis()" style="text;strokeColor=none;fillColor=none;align=left;verticalAlign=top;spacingLeft=4;spacingRight=4;overflow=hidden;rotatable=0;points=[[0,0.5],[1,0.5]];portConstraint=eastwest;whiteSpace=wrap;html=1;fontStyle=0" parent="3ypc7PpezAvxCuO7cp76-10" vertex="1">
          <mxGeometry y="26" width="130" height="26" as="geometry" />
        </mxCell>
        <mxCell id="3ypc7PpezAvxCuO7cp76-21" value="+DoThat()" style="text;strokeColor=none;fillColor=none;align=left;verticalAlign=top;spacingLeft=4;spacingRight=4;overflow=hidden;rotatable=0;points=[[0,0.5],[1,0.5]];portConstraint=eastwest;whiteSpace=wrap;html=1;fontStyle=0" parent="3ypc7PpezAvxCuO7cp76-10" vertex="1">
          <mxGeometry y="52" width="130" height="26" as="geometry" />
        </mxCell>
        <mxCell id="3ypc7PpezAvxCuO7cp76-25" value="" style="line;strokeWidth=1;fillColor=none;align=left;verticalAlign=middle;spacingTop=-1;spacingLeft=3;spacingRight=3;rotatable=0;labelPosition=right;points=[];portConstraint=eastwest;strokeColor=inherit;" parent="3ypc7PpezAvxCuO7cp76-10" vertex="1">
          <mxGeometry y="78" width="130" height="8" as="geometry" />
        </mxCell>
        <mxCell id="3ypc7PpezAvxCuO7cp76-26" value="-m_context:State" style="text;strokeColor=none;fillColor=none;align=left;verticalAlign=top;spacingLeft=4;spacingRight=4;overflow=hidden;rotatable=0;points=[[0,0.5],[1,0.5]];portConstraint=eastwest;whiteSpace=wrap;html=1;" parent="3ypc7PpezAvxCuO7cp76-10" vertex="1">
          <mxGeometry y="86" width="130" height="26" as="geometry" />
        </mxCell>
        <mxCell id="3ypc7PpezAvxCuO7cp76-12" value="" style="endArrow=block;dashed=1;endFill=0;endSize=12;html=1;rounded=0;" parent="1" source="3ypc7PpezAvxCuO7cp76-8" target="3ypc7PpezAvxCuO7cp76-5" edge="1">
          <mxGeometry width="160" relative="1" as="geometry">
            <mxPoint x="-500" y="630" as="sourcePoint" />
            <mxPoint x="-340" y="630" as="targetPoint" />
          </mxGeometry>
        </mxCell>
        <mxCell id="3ypc7PpezAvxCuO7cp76-13" value="" style="endArrow=block;dashed=1;endFill=0;endSize=12;html=1;rounded=0;" parent="1" source="3ypc7PpezAvxCuO7cp76-10" target="3ypc7PpezAvxCuO7cp76-5" edge="1">
          <mxGeometry width="160" relative="1" as="geometry">
            <mxPoint x="-500" y="630" as="sourcePoint" />
            <mxPoint x="-340" y="630" as="targetPoint" />
          </mxGeometry>
        </mxCell>
        <mxCell id="3ypc7PpezAvxCuO7cp76-14" value="&lt;pre&gt;&lt;font face=&quot;Lucida Console&quot;&gt;m_state.DoThis()&lt;/font&gt;&lt;/pre&gt;" style="shape=note;whiteSpace=wrap;html=1;backgroundOutline=1;darkOpacity=0.05;align=left;size=13;" parent="1" vertex="1">
          <mxGeometry x="-730" y="740" width="135" height="30" as="geometry" />
        </mxCell>
        <mxCell id="3ypc7PpezAvxCuO7cp76-15" style="edgeStyle=orthogonalEdgeStyle;rounded=0;orthogonalLoop=1;jettySize=auto;html=1;" parent="1" source="3ypc7PpezAvxCuO7cp76-2" target="3ypc7PpezAvxCuO7cp76-14" edge="1">
          <mxGeometry relative="1" as="geometry">
            <Array as="points">
              <mxPoint x="-670" y="559" />
            </Array>
          </mxGeometry>
        </mxCell>
        <mxCell id="3ypc7PpezAvxCuO7cp76-28" value="" style="endArrow=diamondThin;endFill=0;endSize=24;html=1;rounded=0;edgeStyle=orthogonalEdgeStyle;" parent="1" source="3ypc7PpezAvxCuO7cp76-1" target="3ypc7PpezAvxCuO7cp76-8" edge="1">
          <mxGeometry width="160" relative="1" as="geometry">
            <mxPoint x="-370" y="582" as="sourcePoint" />
            <mxPoint x="-510" y="820" as="targetPoint" />
            <Array as="points">
              <mxPoint x="-540" y="730" />
            </Array>
          </mxGeometry>
        </mxCell>
        <mxCell id="3ypc7PpezAvxCuO7cp76-29" value="" style="endArrow=diamondThin;endFill=0;endSize=24;html=1;rounded=0;edgeStyle=orthogonalEdgeStyle;" parent="1" source="3ypc7PpezAvxCuO7cp76-1" target="3ypc7PpezAvxCuO7cp76-10" edge="1">
          <mxGeometry width="160" relative="1" as="geometry">
            <mxPoint x="-490" y="657" as="sourcePoint" />
            <mxPoint x="-445" y="694" as="targetPoint" />
            <Array as="points">
              <mxPoint x="-570" y="830" />
              <mxPoint x="-250" y="830" />
            </Array>
          </mxGeometry>
        </mxCell>
        <mxCell id="3ypc7PpezAvxCuO7cp76-30" value="" style="endArrow=open;endFill=1;endSize=12;html=1;rounded=0;" parent="1" source="3ypc7PpezAvxCuO7cp76-1" target="3ypc7PpezAvxCuO7cp76-5" edge="1">
          <mxGeometry width="160" relative="1" as="geometry">
            <mxPoint x="-460" y="640" as="sourcePoint" />
            <mxPoint x="-300" y="640" as="targetPoint" />
          </mxGeometry>
        </mxCell>
        <mxCell id="_p5M--wS23h-RvkPVLqR-1" value="Содержит методы, необходимые классам состояний" style="shape=note;whiteSpace=wrap;html=1;backgroundOutline=1;darkOpacity=0.05;fillColor=#ffff88;strokeColor=#36393d;fontFamily=Consolas;size=15;align=left;spacingLeft=2;" vertex="1" parent="1">
          <mxGeometry x="-1125" y="-425" width="190" height="60" as="geometry" />
        </mxCell>
        <mxCell id="_p5M--wS23h-RvkPVLqR-3" value="" style="endArrow=diamondThin;endFill=1;endSize=24;html=1;rounded=0;edgeStyle=orthogonalEdgeStyle;" edge="1" parent="1" source="RrVwWXCyHVwnufMky5Bb-9" target="av5-S5C0yqWMrNUavOaL-31">
          <mxGeometry width="160" relative="1" as="geometry">
            <mxPoint x="-980" y="-270" as="sourcePoint" />
            <mxPoint x="-820" y="-270" as="targetPoint" />
            <Array as="points">
              <mxPoint x="-245" y="-410" />
            </Array>
          </mxGeometry>
        </mxCell>
        <mxCell id="_p5M--wS23h-RvkPVLqR-4" style="edgeStyle=orthogonalEdgeStyle;rounded=0;orthogonalLoop=1;jettySize=auto;html=1;" edge="1" source="_p5M--wS23h-RvkPVLqR-6" target="_p5M--wS23h-RvkPVLqR-24" parent="1">
          <mxGeometry relative="1" as="geometry">
            <Array as="points">
              <mxPoint x="-880" y="-21" />
              <mxPoint x="-880" y="10" />
            </Array>
          </mxGeometry>
        </mxCell>
        <mxCell id="_p5M--wS23h-RvkPVLqR-5" value="Context" style="swimlane;fontStyle=1;align=center;verticalAlign=top;childLayout=stackLayout;horizontal=1;startSize=26;horizontalStack=0;resizeParent=1;resizeParentMax=0;resizeLast=0;collapsible=1;marginBottom=0;whiteSpace=wrap;html=1;fillColor=#d5e8d4;strokeColor=#82b366;" vertex="1" parent="1">
          <mxGeometry x="-845" y="-60" width="160" height="90" as="geometry" />
        </mxCell>
        <mxCell id="_p5M--wS23h-RvkPVLqR-6" value="+DoSomething()" style="text;strokeColor=none;fillColor=none;align=left;verticalAlign=top;spacingLeft=4;spacingRight=4;overflow=hidden;rotatable=0;points=[[0,0.5],[1,0.5]];portConstraint=eastwest;whiteSpace=wrap;html=1;" vertex="1" parent="_p5M--wS23h-RvkPVLqR-5">
          <mxGeometry y="26" width="160" height="26" as="geometry" />
        </mxCell>
        <mxCell id="_p5M--wS23h-RvkPVLqR-42" value="" style="line;strokeWidth=1;fillColor=none;align=left;verticalAlign=middle;spacingTop=-1;spacingLeft=3;spacingRight=3;rotatable=0;labelPosition=right;points=[];portConstraint=eastwest;strokeColor=inherit;" vertex="1" parent="_p5M--wS23h-RvkPVLqR-5">
          <mxGeometry y="52" width="160" height="8" as="geometry" />
        </mxCell>
        <mxCell id="_p5M--wS23h-RvkPVLqR-41" value="-m_impl:ContextImpl" style="text;strokeColor=none;fillColor=none;align=left;verticalAlign=top;spacingLeft=4;spacingRight=4;overflow=hidden;rotatable=0;points=[[0,0.5],[1,0.5]];portConstraint=eastwest;whiteSpace=wrap;html=1;" vertex="1" parent="_p5M--wS23h-RvkPVLqR-5">
          <mxGeometry y="60" width="160" height="30" as="geometry" />
        </mxCell>
        <mxCell id="_p5M--wS23h-RvkPVLqR-7" value="&lt;div&gt;&lt;span style=&quot;font-style: normal; font-weight: normal;&quot;&gt;&amp;lt;&amp;lt;interface&amp;gt;&amp;gt;&lt;/span&gt;&lt;/div&gt;IState" style="swimlane;fontStyle=3;align=center;verticalAlign=top;childLayout=stackLayout;horizontal=1;startSize=40;horizontalStack=0;resizeParent=1;resizeParentMax=0;resizeLast=0;collapsible=1;marginBottom=0;whiteSpace=wrap;html=1;fillColor=#f8cecc;strokeColor=#b85450;" vertex="1" parent="1">
          <mxGeometry x="-510" y="340" width="160" height="66" as="geometry" />
        </mxCell>
        <mxCell id="_p5M--wS23h-RvkPVLqR-8" value="+DoSomething()" style="text;strokeColor=none;fillColor=none;align=left;verticalAlign=top;spacingLeft=4;spacingRight=4;overflow=hidden;rotatable=0;points=[[0,0.5],[1,0.5]];portConstraint=eastwest;whiteSpace=wrap;html=1;fontStyle=2" vertex="1" parent="_p5M--wS23h-RvkPVLqR-7">
          <mxGeometry y="40" width="160" height="26" as="geometry" />
        </mxCell>
        <mxCell id="_p5M--wS23h-RvkPVLqR-9" value="ConcreteStateA" style="swimlane;fontStyle=1;align=center;verticalAlign=top;childLayout=stackLayout;horizontal=1;startSize=26;horizontalStack=0;resizeParent=1;resizeParentMax=0;resizeLast=0;collapsible=1;marginBottom=0;whiteSpace=wrap;html=1;fillColor=#f8cecc;strokeColor=#b85450;" vertex="1" parent="1">
          <mxGeometry x="-640" y="158" width="210" height="78" as="geometry" />
        </mxCell>
        <mxCell id="_p5M--wS23h-RvkPVLqR-10" value="&lt;span style=&quot;font-style: normal;&quot;&gt;+DoSomething()&lt;/span&gt;" style="text;strokeColor=none;fillColor=none;align=left;verticalAlign=top;spacingLeft=4;spacingRight=4;overflow=hidden;rotatable=0;points=[[0,0.5],[1,0.5]];portConstraint=eastwest;whiteSpace=wrap;html=1;fontStyle=2" vertex="1" parent="_p5M--wS23h-RvkPVLqR-9">
          <mxGeometry y="26" width="210" height="26" as="geometry" />
        </mxCell>
        <mxCell id="_p5M--wS23h-RvkPVLqR-11" value="-m_context:ContextImpl" style="text;strokeColor=none;fillColor=none;align=left;verticalAlign=top;spacingLeft=4;spacingRight=4;overflow=hidden;rotatable=0;points=[[0,0.5],[1,0.5]];portConstraint=eastwest;whiteSpace=wrap;html=1;" vertex="1" parent="_p5M--wS23h-RvkPVLqR-9">
          <mxGeometry y="52" width="210" height="26" as="geometry" />
        </mxCell>
        <mxCell id="_p5M--wS23h-RvkPVLqR-12" value="" style="endArrow=diamondThin;endFill=1;endSize=24;html=1;rounded=0;" edge="1" source="_p5M--wS23h-RvkPVLqR-9" target="_p5M--wS23h-RvkPVLqR-17" parent="1">
          <mxGeometry width="160" relative="1" as="geometry">
            <mxPoint x="-975" y="254" as="sourcePoint" />
            <mxPoint x="-815" y="254" as="targetPoint" />
          </mxGeometry>
        </mxCell>
        <mxCell id="_p5M--wS23h-RvkPVLqR-13" value="" style="endArrow=block;dashed=1;endFill=0;endSize=12;html=1;rounded=0;" edge="1" source="_p5M--wS23h-RvkPVLqR-9" target="_p5M--wS23h-RvkPVLqR-7" parent="1">
          <mxGeometry width="160" relative="1" as="geometry">
            <mxPoint x="-585" y="114" as="sourcePoint" />
            <mxPoint x="-425" y="114" as="targetPoint" />
          </mxGeometry>
        </mxCell>
        <mxCell id="_p5M--wS23h-RvkPVLqR-14" value="" style="endArrow=diamondThin;endFill=0;endSize=24;html=1;rounded=0;edgeStyle=orthogonalEdgeStyle;" edge="1" source="_p5M--wS23h-RvkPVLqR-7" target="_p5M--wS23h-RvkPVLqR-17" parent="1">
          <mxGeometry width="160" relative="1" as="geometry">
            <mxPoint x="-775" y="294" as="sourcePoint" />
            <mxPoint x="-615" y="294" as="targetPoint" />
          </mxGeometry>
        </mxCell>
        <mxCell id="_p5M--wS23h-RvkPVLqR-15" value="" style="endArrow=diamondThin;endFill=0;endSize=24;html=1;rounded=0;" edge="1" source="_p5M--wS23h-RvkPVLqR-32" target="_p5M--wS23h-RvkPVLqR-9" parent="1">
          <mxGeometry width="160" relative="1" as="geometry">
            <mxPoint x="-805" y="124" as="sourcePoint" />
            <mxPoint x="-685" y="284" as="targetPoint" />
          </mxGeometry>
        </mxCell>
        <mxCell id="_p5M--wS23h-RvkPVLqR-16" style="edgeStyle=orthogonalEdgeStyle;rounded=0;orthogonalLoop=1;jettySize=auto;html=1;" edge="1" source="_p5M--wS23h-RvkPVLqR-32" target="_p5M--wS23h-RvkPVLqR-30" parent="1">
          <mxGeometry relative="1" as="geometry" />
        </mxCell>
        <mxCell id="_p5M--wS23h-RvkPVLqR-17" value="ContextImpl" style="swimlane;fontStyle=1;align=center;verticalAlign=top;childLayout=stackLayout;horizontal=1;startSize=26;horizontalStack=0;resizeParent=1;resizeParentMax=0;resizeLast=0;collapsible=1;marginBottom=0;whiteSpace=wrap;html=1;fillColor=#f8cecc;strokeColor=#b85450;" vertex="1" parent="1">
          <mxGeometry x="-885" y="124" width="160" height="130" as="geometry" />
        </mxCell>
        <mxCell id="_p5M--wS23h-RvkPVLqR-18" value="+DoSomething()" style="text;strokeColor=none;fillColor=none;align=left;verticalAlign=top;spacingLeft=4;spacingRight=4;overflow=hidden;rotatable=0;points=[[0,0.5],[1,0.5]];portConstraint=eastwest;whiteSpace=wrap;html=1;" vertex="1" parent="_p5M--wS23h-RvkPVLqR-17">
          <mxGeometry y="26" width="160" height="26" as="geometry" />
        </mxCell>
        <mxCell id="_p5M--wS23h-RvkPVLqR-19" value="+GotoStateA()" style="text;strokeColor=none;fillColor=none;align=left;verticalAlign=top;spacingLeft=4;spacingRight=4;overflow=hidden;rotatable=0;points=[[0,0.5],[1,0.5]];portConstraint=eastwest;whiteSpace=wrap;html=1;" vertex="1" parent="_p5M--wS23h-RvkPVLqR-17">
          <mxGeometry y="52" width="160" height="26" as="geometry" />
        </mxCell>
        <mxCell id="_p5M--wS23h-RvkPVLqR-20" value="+GotoStateB()" style="text;strokeColor=none;fillColor=none;align=left;verticalAlign=top;spacingLeft=4;spacingRight=4;overflow=hidden;rotatable=0;points=[[0,0.5],[1,0.5]];portConstraint=eastwest;whiteSpace=wrap;html=1;" vertex="1" parent="_p5M--wS23h-RvkPVLqR-17">
          <mxGeometry y="78" width="160" height="26" as="geometry" />
        </mxCell>
        <mxCell id="_p5M--wS23h-RvkPVLqR-37" value="+DoSomethingInternal()" style="text;strokeColor=none;fillColor=none;align=left;verticalAlign=top;spacingLeft=4;spacingRight=4;overflow=hidden;rotatable=0;points=[[0,0.5],[1,0.5]];portConstraint=eastwest;whiteSpace=wrap;html=1;" vertex="1" parent="_p5M--wS23h-RvkPVLqR-17">
          <mxGeometry y="104" width="160" height="26" as="geometry" />
        </mxCell>
        <mxCell id="_p5M--wS23h-RvkPVLqR-21" value="Client" style="swimlane;fontStyle=1;align=center;verticalAlign=top;childLayout=stackLayout;horizontal=1;startSize=26;horizontalStack=0;resizeParent=1;resizeParentMax=0;resizeLast=0;collapsible=1;marginBottom=0;whiteSpace=wrap;html=1;" vertex="1" parent="1">
          <mxGeometry x="-1130" y="-100" width="160" height="52" as="geometry" />
        </mxCell>
        <mxCell id="_p5M--wS23h-RvkPVLqR-22" value="Use" style="endArrow=open;endSize=12;dashed=1;html=1;rounded=0;" edge="1" source="_p5M--wS23h-RvkPVLqR-21" parent="1">
          <mxGeometry width="160" relative="1" as="geometry">
            <mxPoint x="-795" y="-146" as="sourcePoint" />
            <mxPoint x="-845" y="-32" as="targetPoint" />
          </mxGeometry>
        </mxCell>
        <mxCell id="_p5M--wS23h-RvkPVLqR-23" value="" style="endArrow=diamondThin;endFill=1;endSize=24;html=1;rounded=0;" edge="1" source="_p5M--wS23h-RvkPVLqR-17" target="_p5M--wS23h-RvkPVLqR-5" parent="1">
          <mxGeometry width="160" relative="1" as="geometry">
            <mxPoint x="-975" y="254" as="sourcePoint" />
            <mxPoint x="-815" y="254" as="targetPoint" />
          </mxGeometry>
        </mxCell>
        <mxCell id="_p5M--wS23h-RvkPVLqR-24" value="m_impl.DoSomething()" style="shape=note;whiteSpace=wrap;html=1;backgroundOutline=1;darkOpacity=0.05;fillColor=#ffff88;strokeColor=#36393d;fontFamily=Consolas;size=15;align=left;spacingLeft=2;" vertex="1" parent="1">
          <mxGeometry x="-1130" y="-20" width="165" height="60" as="geometry" />
        </mxCell>
        <mxCell id="_p5M--wS23h-RvkPVLqR-25" value="ConcreteStateB" style="swimlane;fontStyle=1;align=center;verticalAlign=top;childLayout=stackLayout;horizontal=1;startSize=26;horizontalStack=0;resizeParent=1;resizeParentMax=0;resizeLast=0;collapsible=1;marginBottom=0;whiteSpace=wrap;html=1;fillColor=#f8cecc;strokeColor=#b85450;" vertex="1" parent="1">
          <mxGeometry x="-400" y="158" width="210" height="78" as="geometry" />
        </mxCell>
        <mxCell id="_p5M--wS23h-RvkPVLqR-26" value="&lt;span style=&quot;font-style: normal;&quot;&gt;+DoSomething()&lt;/span&gt;" style="text;strokeColor=none;fillColor=none;align=left;verticalAlign=top;spacingLeft=4;spacingRight=4;overflow=hidden;rotatable=0;points=[[0,0.5],[1,0.5]];portConstraint=eastwest;whiteSpace=wrap;html=1;fontStyle=2" vertex="1" parent="_p5M--wS23h-RvkPVLqR-25">
          <mxGeometry y="26" width="210" height="26" as="geometry" />
        </mxCell>
        <mxCell id="_p5M--wS23h-RvkPVLqR-27" value="-m_context:ContextImpl" style="text;strokeColor=none;fillColor=none;align=left;verticalAlign=top;spacingLeft=4;spacingRight=4;overflow=hidden;rotatable=0;points=[[0,0.5],[1,0.5]];portConstraint=eastwest;whiteSpace=wrap;html=1;" vertex="1" parent="_p5M--wS23h-RvkPVLqR-25">
          <mxGeometry y="52" width="210" height="26" as="geometry" />
        </mxCell>
        <mxCell id="_p5M--wS23h-RvkPVLqR-28" value="" style="endArrow=block;dashed=1;endFill=0;endSize=12;html=1;rounded=0;" edge="1" source="_p5M--wS23h-RvkPVLqR-25" target="_p5M--wS23h-RvkPVLqR-7" parent="1">
          <mxGeometry width="160" relative="1" as="geometry">
            <mxPoint x="-585" y="114" as="sourcePoint" />
            <mxPoint x="-425" y="114" as="targetPoint" />
          </mxGeometry>
        </mxCell>
        <mxCell id="_p5M--wS23h-RvkPVLqR-29" value="" style="endArrow=diamondThin;endFill=0;endSize=24;html=1;rounded=0;" edge="1" source="_p5M--wS23h-RvkPVLqR-32" target="_p5M--wS23h-RvkPVLqR-25" parent="1">
          <mxGeometry width="160" relative="1" as="geometry">
            <mxPoint x="-805" y="124" as="sourcePoint" />
            <mxPoint x="-685" y="284" as="targetPoint" />
          </mxGeometry>
        </mxCell>
        <mxCell id="_p5M--wS23h-RvkPVLqR-30" value="Содержит методы, необходимые классам состояний" style="shape=note;whiteSpace=wrap;html=1;backgroundOutline=1;darkOpacity=0.05;fillColor=#ffff88;strokeColor=#36393d;fontFamily=Consolas;size=15;align=left;spacingLeft=2;" vertex="1" parent="1">
          <mxGeometry x="-380" y="-36" width="190" height="60" as="geometry" />
        </mxCell>
        <mxCell id="_p5M--wS23h-RvkPVLqR-31" value="" style="endArrow=diamondThin;endFill=1;endSize=24;html=1;rounded=0;edgeStyle=orthogonalEdgeStyle;" edge="1" source="_p5M--wS23h-RvkPVLqR-25" target="_p5M--wS23h-RvkPVLqR-17" parent="1">
          <mxGeometry width="160" relative="1" as="geometry">
            <mxPoint x="-975" y="254" as="sourcePoint" />
            <mxPoint x="-815" y="254" as="targetPoint" />
            <Array as="points">
              <mxPoint x="-310" y="310" />
              <mxPoint x="-740" y="310" />
            </Array>
          </mxGeometry>
        </mxCell>
        <mxCell id="_p5M--wS23h-RvkPVLqR-32" value="&lt;div&gt;&lt;span style=&quot;font-style: normal; font-weight: normal;&quot;&gt;&amp;lt;&amp;lt;interface&amp;gt;&amp;gt;&lt;/span&gt;&lt;/div&gt;&lt;div&gt;&lt;span style=&quot;font-style: normal;&quot;&gt;IContext&lt;/span&gt;&lt;/div&gt;" style="swimlane;fontStyle=3;align=center;verticalAlign=top;childLayout=stackLayout;horizontal=1;startSize=40;horizontalStack=0;resizeParent=1;resizeParentMax=0;resizeLast=0;collapsible=1;marginBottom=0;whiteSpace=wrap;html=1;fillColor=#f8cecc;strokeColor=#b85450;" vertex="1" parent="1">
          <mxGeometry x="-600" y="-65" width="160" height="118" as="geometry" />
        </mxCell>
        <mxCell id="_p5M--wS23h-RvkPVLqR-33" value="+DoSomethingInternal()" style="text;strokeColor=none;fillColor=none;align=left;verticalAlign=top;spacingLeft=4;spacingRight=4;overflow=hidden;rotatable=0;points=[[0,0.5],[1,0.5]];portConstraint=eastwest;whiteSpace=wrap;html=1;fontStyle=2" vertex="1" parent="_p5M--wS23h-RvkPVLqR-32">
          <mxGeometry y="40" width="160" height="26" as="geometry" />
        </mxCell>
        <mxCell id="_p5M--wS23h-RvkPVLqR-35" value="+GotoStateA()" style="text;strokeColor=none;fillColor=none;align=left;verticalAlign=top;spacingLeft=4;spacingRight=4;overflow=hidden;rotatable=0;points=[[0,0.5],[1,0.5]];portConstraint=eastwest;whiteSpace=wrap;html=1;fontStyle=2" vertex="1" parent="_p5M--wS23h-RvkPVLqR-32">
          <mxGeometry y="66" width="160" height="26" as="geometry" />
        </mxCell>
        <mxCell id="_p5M--wS23h-RvkPVLqR-36" value="+GotoStateB()" style="text;strokeColor=none;fillColor=none;align=left;verticalAlign=top;spacingLeft=4;spacingRight=4;overflow=hidden;rotatable=0;points=[[0,0.5],[1,0.5]];portConstraint=eastwest;whiteSpace=wrap;html=1;fontStyle=2" vertex="1" parent="_p5M--wS23h-RvkPVLqR-32">
          <mxGeometry y="92" width="160" height="26" as="geometry" />
        </mxCell>
        <mxCell id="_p5M--wS23h-RvkPVLqR-34" value="" style="endArrow=block;dashed=1;endFill=0;endSize=12;html=1;rounded=0;" edge="1" parent="1" source="_p5M--wS23h-RvkPVLqR-32" target="_p5M--wS23h-RvkPVLqR-17">
          <mxGeometry width="160" relative="1" as="geometry">
            <mxPoint x="-585" y="114" as="sourcePoint" />
            <mxPoint x="-425" y="114" as="targetPoint" />
          </mxGeometry>
        </mxCell>
      </root>
    </mxGraphModel>
  </diagram>
</mxfile>
